<svg xmlns="http://www.w3.org/2000/svg" version="1.1" xmlns:xlink="http://www.w3.org/1999/xlink" xmlns:svgjs="http://svgjs.com/svgjs" width="1000" height="1000"><rect width="1000" height="1000" rx="100" ry="100" fill="#fdfcff"></rect><g transform="matrix(6.349206349206349,0,0,6.349206349206349,102.57033054412358,129.63588684324236)"><svg xmlns="http://www.w3.org/2000/svg" version="1.1" xmlns:xlink="http://www.w3.org/1999/xlink" xmlns:svgjs="http://svgjs.com/svgjs" width="126" height="117"><svg width="126" height="117" xmlns="http://www.w3.org/2000/svg"><g fill="#000" fill-rule="nonzero"><path d="m72.305 58.008 10.312-6.094L70.43 33.281l22.382 1.64v-12.07l-22.382 1.29L82.617 5.977 72.305 0l-9.727 19.688L52.852 0l-10.43 5.977L54.609 24.14l-22.265-1.29v12.07l22.265-1.64-12.187 18.633 10.43 6.094 9.726-19.922zM104.531 116.602l10.313-6.094-12.188-18.633 22.383 1.64v-12.07l-22.383 1.29 12.188-18.165-10.313-5.976-9.726 19.687-9.727-19.687-10.43 5.976 12.188 18.164-22.266-1.289v12.07l22.266-1.64-12.188 18.633 10.43 6.094 9.727-19.922zM40.078 116.602l10.313-6.094-12.188-18.633 22.383 1.64v-12.07l-22.383 1.29L50.391 64.57l-10.313-5.976-9.726 19.687-9.844-19.687-10.43 5.976 12.305 18.164L0 81.445v12.188l22.383-1.758-12.305 18.633 10.43 6.094 9.844-19.922z"></path></g></svg></svg></g></svg>