<?xml version="1.0" encoding="UTF-8"?>
<svg viewBox="0 0 401.3 401.3" xmlns="http://www.w3.org/2000/svg">
<path d="M119 125.5v-25.1h31.8l27.6 4.2 1.8-4.9-22.3-16.2-22.6-22.6L153 43.2l22.6 22.3 16.2 22.6 4.6-1.8-4.2-27.6V27h25.1v31.4L213 86l4.6 1.8 16.2-22.6 22.6-22.3 17.7 17.7-22.3 22.6-22.6 16.2 2.1 4.9 27.2-4.2h31.8v25.1h-31.8l-27.2-4.2-2.1 4.6 22.6 16.2 22.3 22.6-17.7 17.7-22.6-22.6-16.2-22.6-4.6 1.8 4.2 27.6v31.4h-24.7v-31.8l4.2-27.6-4.6-1.8-16.2 22.6-22.6 22.6-17.6-17.7 22.6-22.6 22.3-16.2-1.8-4.6-27.2 4.2H119v.7zM0 289.5v-25.1h32.1l27.2 4.2 1.8-4.6-22.3-16.2-22.6-22.6 17.7-17.7 22.6 22.3 16.2 22.6 4.9-2.1-4.2-27.6v-31.4h25.1v31.4l-4.2 27.6 4.6 2.1 16.2-22.6 22.6-22.3 17.7 17.7-22.3 22.6-22.5 16.2 1.8 4.6 27.2-4.2h31.8v25.1h-31.8l-27.2-4.6-1.8 4.6 22.6 16.6 22.3 22.6-17.7 17.7-22.6-22.6L99 301.2l-4.6 2.1 4.2 27.6v31.4H73.8v-31.8l4.2-27.6-4.6-2.1-16.6 22.6L34.3 346l-17.7-17.7L39.2 306l22.3-16.2-2.1-4.9-27.2 4.2H0v.4zm229.6 0v-25.1h31.8l27.2 4.2 2.1-4.6-22.3-16.2-22.6-22.6 17.7-17.7 22.6 22.3 16.2 22.6 4.9-2.1-4.2-27.6v-31.4h25.1v31.4l-4.2 27.6 4.6 2.1 16.2-22.6 22.6-22.3 17.7 17.7-22.3 22.6-22.5 16.2 2.1 4.6 27.2-4.2h31.8v25.1h-31.8l-27.6-4.6-2.1 4.6 22.6 16.2 22.3 22.6L367 346l-22.6-22.6-16.2-22.6-4.6 2.1 4.2 27.6v31.4h-24.7v-31.8l4.2-27.6-4.6-2.1-16.6 22.6-22.6 22.6-17.6-17.6 22.6-22.3 22.3-16.2-1.8-4.6-27.2 4.2-32.2.4z"/>
</svg>
