<svg
    xmlns="http://www.w3.org/2000/svg"
    width="19.519"
    height="28.94"
    fill="black"
  >
    <path
    fill="black"
      data-name="Tilda_Icons_1ed_lightbulb 14 - Outline"
      d="M9.739 0a9.752 9.752 0 0 1 6.6 16.952 5.165 5.165 0 0 0-1.792 3.8v4.983a.7.7 0 0 1-.7.7h-.299a3.354 3.354 0 0 1-.881 1.725 2.52 2.52 0 0 1-1.794.783H8.648a2.52 2.52 0 0 1-1.794-.783 3.354 3.354 0 0 1-.881-1.725h-.312a.7.7 0 0 1-.7-.7v-4.877a.668.668 0 0 1-.013-.091 5.533 5.533 0 0 0-1.747-3.784A9.757 9.757 0 0 1 7.801.188 10.135 10.135 0 0 1 9.739 0Zm4.4 20.739a5.575 5.575 0 0 1 1.927-4.092 9.337 9.337 0 0 0-.367-14.106A9.344 9.344 0 0 0 3.483 16.676a5.943 5.943 0 0 1 1.882 4.063.36.36 0 0 0 .009.05l.005.023v4.924a.283.283 0 0 0 .282.282h.667l.025.178a2.967 2.967 0 0 0 .8 1.67 2.11 2.11 0 0 0 1.5.66h2.215a2.11 2.11 0 0 0 1.5-.66 2.968 2.968 0 0 0 .8-1.67l.025-.178h.667a.283.283 0 0 0 .282-.282ZM9.739.978a8.774 8.774 0 0 1 5.945 15.253 6.708 6.708 0 0 0-1.451 1.873 5.8 5.8 0 0 0-.631 2.145l-.017.188h-2.29l-.012-8.006h.956a1.522 1.522 0 1 0-1.523-1.522v.957H8.801v-.958a1.522 1.522 0 1 0-1.522 1.523h.958v8.007H5.902l-.023-.181a6.827 6.827 0 0 0-.668-2.217 6.076 6.076 0 0 0-1.349-1.781A8.78 8.78 0 0 1 7.99 1.149 9.156 9.156 0 0 1 9.737.978Zm5.668 14.948a8.371 8.371 0 1 0-11.266.025 6.488 6.488 0 0 1 1.441 1.9 7.2 7.2 0 0 1 .683 2.17h1.56v-7.18H7.28a1.935 1.935 0 1 1 1.935-1.935v.545h1.09v-.544a1.936 1.936 0 1 1 1.936 1.935h-.542l.01 7.18h1.5a6.232 6.232 0 0 1 .656-2.11 7.12 7.12 0 0 1 1.539-1.988ZM7.28 9.95a.959.959 0 0 1 .958.958v.958H7.28a.958.958 0 0 1 0-1.916Zm.545 1.5v-.545a.545.545 0 1 0-.545.545Zm4.416-1.5a.958.958 0 1 1 0 1.916h-.957v-.958a.959.959 0 0 1 .955-.958Zm0 1.5a.545.545 0 1 0-.545-.545v.545Zm-3.438.978h1.918l.012 8.007H8.801Zm1.5.413H9.214v7.18h1.1Zm-4.355 8.16h4.888v.413H6.357v3.627h6.8v-3.626h-1.964v-.414h2.38v4.453H5.948Zm.943 5.017h5.742l-.047.246a2.374 2.374 0 0 1-.6 1.2 1.559 1.559 0 0 1-1.114.5H8.648a1.559 1.559 0 0 1-1.114-.5 2.375 2.375 0 0 1-.6-1.2Zm5.227.413H7.402a1.414 1.414 0 0 0 1.246 1.118h2.22a1.414 1.414 0 0 0 1.247-1.118Z"
    />
  </svg>