<svg xmlns="http://www.w3.org/2000/svg" width="25.297" height="23.478" viewBox="0 0 25.297 23.478">
  <g id="Tilda_Icons_30_system_warning" transform="translate(-8.997 -10.001)">
    <path id="Path_19133" data-name="Path 19133" d="M33.515,30.56,22.981,11.321a1.565,1.565,0,0,0-2.753,0L9.694,30.56A1.577,1.577,0,0,0,11.071,32.9H32.138a1.578,1.578,0,0,0,1.377-2.337Zm-.808,1.1a.648.648,0,0,1-.569.326H11.071a.648.648,0,0,1-.569-.326A.669.669,0,0,1,10.491,31L21.025,11.757a.658.658,0,0,1,1.16,0L32.719,31A.67.67,0,0,1,32.707,31.664Z" transform="translate(0.041 0.041)"/>
    <path id="Path_19133_-_Outline" data-name="Path 19133 - Outline" d="M32.179,33.479H11.112a2.118,2.118,0,0,1-1.851-3.138L19.795,11.1a2.106,2.106,0,0,1,3.7,0L34.03,30.341a2.118,2.118,0,0,1-1.851,3.138ZM21.646,11.99a.116.116,0,0,0-.106.067L11.006,31.3a.128.128,0,0,0,0,.133.108.108,0,0,0,.1.06H32.179a.108.108,0,0,0,.1-.06.129.129,0,0,0,0-.133L21.752,12.057A.116.116,0,0,0,21.646,11.99Z" transform="translate(0)"/>
    <circle id="Ellipse_223" data-name="Ellipse 223" cx="0.757" cy="0.757" r="0.757" transform="matrix(0.058, -0.998, 0.998, 0.058, 20.843, 29.1)"/>
    <path id="Ellipse_223_-_Outline" data-name="Ellipse 223 - Outline" d="M1.3,0A1.3,1.3,0,1,1,0,1.3,1.3,1.3,0,0,1,1.3,0Zm0,1.513A.216.216,0,1,0,1.082,1.3.216.216,0,0,0,1.3,1.513Z" transform="matrix(0.058, -0.998, 0.998, 0.058, 20.272, 29.608)"/>
    <path id="Path_19134" data-name="Path 19134" d="M48.454,40.672a.454.454,0,0,0,.454-.454V32.954a.454.454,0,1,0-.908,0v7.264A.454.454,0,0,0,48.454,40.672Z" transform="translate(-26.809 -15.3)"/>
    <path id="Path_19134_-_Outline" data-name="Path 19134 - Outline" d="M48.495,41.253a1,1,0,0,1-.995-.995V32.995a.995.995,0,0,1,1.99,0v7.264A1,1,0,0,1,48.495,41.253Z" transform="translate(-26.849 -15.341)"/>
  </g>
</svg>
