<?xml version="1.0" encoding="iso-8859-1"?>
<!-- Generator: Adobe Illustrator 21.1.0, SVG Export Plug-In . SVG Version: 6.00 Build 0)  -->
<svg version="1.1" id="Layer_1" xmlns="http://www.w3.org/2000/svg" xmlns:xlink="http://www.w3.org/1999/xlink" x="0px" y="0px"
	 viewBox="0 0 100.353 100.352" style="enable-background:new 0 0 100.353 100.352;" xml:space="preserve">
<path d="M69.294,11.442c-6.788-5.594-15.724-7.82-24.512-6.109C32.951,7.636,23.449,17.623,21.675,29.62
	c-1.447,9.79,2.031,19.567,9.304,26.155c3.277,2.968,5.254,7.243,5.568,12.039c0.006,0.087,0.023,0.171,0.042,0.254v15.039
	c0,0.828,0.671,1.5,1.5,1.5h1.495c0.609,4.359,3.813,7.697,7.672,7.697h6.81c3.859,0,7.062-3.338,7.671-7.697h1.495
	c0.828,0,1.5-0.672,1.5-1.5V67.828c0-0.003,0.001-0.006,0.001-0.01c0-4.462,2.026-8.771,5.706-12.133
	c6.062-5.538,9.538-13.415,9.538-21.61C79.978,25.287,76.084,17.037,69.294,11.442z M45.357,39.91h-2.305
	c-1.271,0-2.305-1.034-2.305-2.305s1.034-2.305,2.305-2.305s2.305,1.034,2.305,2.305V39.91z M55.966,37.605
	c0-1.271,1.034-2.305,2.306-2.305c1.271,0,2.305,1.034,2.305,2.305s-1.034,2.305-2.305,2.305h-2.303L55.966,37.605z M55.063,69.211
	h6.67v12.396H60.36c-0.003,0-0.006-0.001-0.01-0.001s-0.006,0.001-0.01,0.001H40.982c-0.003,0-0.006-0.001-0.01-0.001
	s-0.006,0.001-0.01,0.001H39.59V69.211h14.366 M48.357,66.211V42.91h4.617l0.034,23.301H48.357z M54.066,89.304h-6.81
	c-2.238,0-4.117-2.004-4.637-4.697h16.083C58.183,87.3,56.304,89.304,54.066,89.304z M68.416,53.471
	c-3.872,3.537-6.164,8.013-6.593,12.74h-5.816L55.974,42.91h2.298c2.925,0,5.305-2.38,5.305-5.305c0-2.925-2.38-5.305-5.305-5.305
	c-2.926,0-5.306,2.38-5.306,5.307l0.003,2.303h-4.612v-2.305c0-2.925-2.38-5.305-5.305-5.305c-2.925,0-5.305,2.38-5.305,5.305
	c0,2.925,2.38,5.305,5.305,5.305h2.305v23.301h-5.972c-0.636-5.005-2.864-9.465-6.393-12.66c-6.528-5.914-9.65-14.696-8.35-23.493
	c1.591-10.76,10.108-19.716,20.712-21.781c7.908-1.538,15.938,0.458,22.03,5.48c6.096,5.023,9.592,12.429,9.592,20.319
	C76.978,41.43,73.857,48.5,68.416,53.471z"/>
</svg>
