<?xml version="1.0" encoding="UTF-8"?>
<svg viewBox="0 0 27.2 27.18" xmlns="http://www.w3.org/2000/svg">
<path d="M13.6,27.18A13.59,13.59,0,1,1,27.2,13.6,13.61,13.61,0,0,1,13.6,27.18ZM13.6,2A11.59,11.59,0,1,0,25.2,13.6,11.62,11.62,0,0,0,13.6,2Z" fill="#0b0a45"/>
<path d="M12.82,9.9v2.53h1.6V9.9l2.09,1.21.77-1.21L15.12,8.58l2.16-1.32-.77-1.21L14.42,7.26V4.73h-1.6V7.26l-2-1.21L10,7.26,12.2,8.58,10,9.9l.78,1.21Z" fill="#0b0a45"/>
<path d="M18,17.79v2.52h1.56V17.79L21.63,19l.78-1.2-2.16-1.33,2.16-1.28L21.63,14l-2.08,1.2V12.62H18v2.56L15.9,14l-.77,1.2,2.16,1.32-2.16,1.33L15.9,19Z" fill="#0b0a45"/>
<path d="M8.13,17.79v2.52H9.69V17.79L11.82,19l.77-1.2-2.16-1.33,2.12-1.28-.73-1.24L9.69,15.18V12.62H8.13v2.56L6.05,14l-.78,1.2L7.43,16.5,5.27,17.83,6.05,19Z" fill="#0b0a45"/>
</svg>
