<?xml version="1.0" encoding="UTF-8"?>
<svg version="1.1" viewBox="0 0 455.6 62.8" xml:space="preserve" xmlns="http://www.w3.org/2000/svg"><path class="st0" d="M6.2 42.9L0 .9h6.5l5.1 37.7h1L19 .9h11.4l6.5 37.7h1l5-37.7h6.5L43.1 43H31.7L25.1 4.7h-1L17.5 43H6.2zM68.4 43.8c-2.7.1-5.5-.6-7.9-1.9-2.2-1.2-4-3.1-5.3-5.3-1.3-2.5-1.9-5.2-1.9-8v-.7c-.1-2.8.6-5.6 1.9-8.1 1.2-2.3 3-4.1 5.3-5.3 2.4-1.3 5-2 7.7-1.9 2.6-.1 5.2.6 7.5 1.9 2.1 1.2 3.9 3.1 5 5.3 1.2 2.4 1.9 5.1 1.8 7.9V30H59.8c0 2.4.9 4.6 2.6 6.2 1.7 1.6 3.9 2.4 6.2 2.3 2.3 0 4.1-.5 5.3-1.6 1.2-1 2.1-2.2 2.7-3.6l5.1 2.6c-.7 1.3-1.5 2.4-2.4 3.5-1.2 1.3-2.6 2.4-4.2 3.1-2.1.9-4.4 1.4-6.7 1.3zm-8.7-18.7h16.4c-.1-2-.9-3.9-2.4-5.3-1.6-1.3-3.6-2-5.7-1.9-2.1-.1-4.1.6-5.7 1.9-1.4 1.4-2.4 3.3-2.6 5.3zM106.5 43.8c-2.9 0-5.1-.5-6.6-1.6-1.4-.9-2.6-2.1-3.5-3.5h-1v4.2h-6.1V.9h6.2v16.4h1c.5-.9 1.2-1.6 1.9-2.3.9-.8 2-1.4 3.2-1.8 1.6-.5 3.2-.8 4.9-.7 2.4 0 4.8.6 6.9 1.8 2.1 1.2 3.9 3.1 5 5.3 1.3 2.5 1.9 5.3 1.9 8.2v.9c.1 2.8-.5 5.7-1.9 8.2-2.4 4.2-6.9 6.9-11.9 6.9zm-1.8-5.5c2.5.1 4.9-.9 6.6-2.6 1.8-1.8 2.6-4.2 2.6-7.4v-.5c0-3.2-.9-5.6-2.6-7.3-3.8-3.4-9.5-3.4-13.3 0-1.8 1.8-2.6 4.2-2.6 7.3v.5c0 3.2.9 5.7 2.6 7.4 1.8 1.8 4.2 2.7 6.7 2.6zM141.1 43.8c-2.8.1-5.6-.5-8.2-1.7-2.3-1-4.3-2.7-5.6-4.9-1.4-2.3-2.1-4.9-2-7.6v-1.1h6.3v1c-.1 2.4.9 4.7 2.6 6.3 1.9 1.6 4.4 2.4 6.9 2.3 2.9 0 5.1-.7 6.7-2.2 1.6-1.4 2.5-3.4 2.4-5.5V30c.1-1.4-.3-2.7-1.1-3.8-.8-1-1.9-1.7-3.1-2.1-1.4-.5-2.9-.7-4.3-.7h-7.6v-7.3l14.8-8.8v-.9h-22.6V.9h29.5v8.5l-14.1 8.4v.9h2.6c2.1 0 4.1.4 6 1.2 1.8.8 3.4 2 4.6 3.7 1.2 1.8 1.9 4 1.8 6.3v.7c.1 2.5-.6 4.9-1.9 7-1.3 2-3.2 3.6-5.4 4.6-2.7 1.1-5.5 1.7-8.3 1.6zM167 43.8c-1.3 0-2.6-.5-3.5-1.4-.9-.9-1.5-2.2-1.4-3.6 0-1.3.5-2.6 1.4-3.5.9-.9 2.2-1.4 3.5-1.3 1.3 0 2.6.5 3.5 1.4.9.9 1.5 2.2 1.4 3.5 0 1.3-.5 2.6-1.4 3.6-.9.8-2.2 1.3-3.5 1.3zM193.5 43.8c-2.9.1-5.8-.5-8.4-1.7-2.4-1.1-4.4-2.8-5.7-5-1.4-2.4-2.2-5.2-2.1-8v-1.5h6.4v1.5c0 3 .9 5.2 2.7 6.7 2 1.6 4.6 2.4 7.1 2.2 3 0 5.3-.6 6.8-1.9 1.5-1.2 2.3-3 2.3-4.9.1-1.2-.3-2.3-1.1-3.3-.8-.9-1.9-1.6-3.1-2-1.6-.6-3.1-1-4.8-1.4l-2.2-.5c-2.4-.6-4.8-1.3-7-2.4-1.8-.8-3.4-2.1-4.6-3.8-1.1-1.8-1.7-3.9-1.6-6-.1-2.3.6-4.5 1.8-6.4 1.3-1.8 3-3.2 5.1-4.1 2.4-1 5-1.5 7.6-1.4 2.7-.1 5.4.5 7.9 1.5 2.2.9 4.1 2.5 5.4 4.4 1.4 2.2 2.1 4.8 2 7.4v2.2h-6.4v-2.2c.1-1.5-.3-3.1-1.1-4.4-.8-1.1-1.8-2-3.1-2.5-1.5-.5-3.1-.8-4.6-.8-2.1-.1-4.2.4-6 1.6-1.4 1-2.2 2.7-2.1 4.4-.1 1.1.2 2.2.9 3.2.7.9 1.7 1.6 2.7 2 1.5.6 3 1.1 4.5 1.4l2.2.5c2.5.5 4.9 1.3 7.2 2.3 1.9.8 3.6 2.2 4.9 3.8 1.3 1.8 1.9 4 1.8 6.2.1 2.3-.6 4.6-1.9 6.6-1.3 2-3.2 3.5-5.4 4.4-2.5 1.4-5.3 1.9-8.1 1.9zM226.6 42.9c-1.6.1-3.2-.5-4.3-1.6-1.1-1.2-1.7-2.8-1.6-4.4V18.5h-8.2v-5.3h8.2V3.5h6.2v9.8h8.8v5.3h-8.8v17.3c0 1.2.6 1.8 1.7 1.8h6.2V43l-8.2-.1zM255.3 43.8c-2.7 0-5.4-.6-7.9-1.8-2.3-1.2-4.2-3-5.4-5.3-1.4-2.5-2.1-5.3-2-8.1v-.9c-.1-2.8.6-5.6 2-8.1 1.3-2.2 3.2-4 5.4-5.3 2.4-1.3 5.1-1.9 7.9-1.9 2.8 0 5.5.6 7.9 1.9 2.3 1.2 4.2 3 5.5 5.3 1.4 2.5 2.1 5.3 2 8.1v.9c.1 2.8-.6 5.6-2 8.1-1.3 2.2-3.2 4.1-5.5 5.3-2.4 1.2-5.2 1.8-7.9 1.8zm0-5.6c2.5.1 4.9-.9 6.6-2.6 1.7-1.8 2.6-4.2 2.6-7.3v-.5c0-3.1-.8-5.5-2.5-7.2-3.7-3.5-9.5-3.5-13.3 0-1.7 1.8-2.6 4.2-2.6 7.2v.5c0 3.1.9 5.5 2.6 7.3 1.7 1.8 4.1 2.7 6.6 2.6zM277.8 42.9V13.3h6.1v3.5h1c.4-1.2 1.2-2.1 2.3-2.7 1.2-.6 2.6-.9 3.9-.9h3.6v5.6h-3.8c-1.8-.1-3.5.5-4.9 1.7-1.3 1.1-1.9 2.8-1.9 5.1V43h-6.3zM308.9 43.8c-1.9 0-3.9-.3-5.7-1.1-1.6-.7-3-1.8-4-3.2-1-1.5-1.5-3.3-1.5-5.1-.1-1.8.4-3.6 1.5-5.1 1-1.4 2.4-2.4 4-3 1.9-.7 3.8-1.1 5.8-1h9v-1.9c.1-1.5-.5-3-1.6-4.1-1-1-2.6-1.6-4.8-1.6-1.8-.1-3.5.4-4.9 1.5-1.1 1-1.9 2.4-2.2 3.9l-5.8-1.9c.5-1.6 1.3-3.1 2.3-4.4 1.2-1.4 2.6-2.4 4.3-3.1 2-.9 4.2-1.3 6.4-1.2 3.9 0 6.9 1 9.1 2.9s3.3 4.8 3.3 8.4V36c0 1.2.6 1.8 1.7 1.8h2.5V43h-4.6c-1.3.1-2.5-.3-3.5-1.1-.9-.7-1.4-1.8-1.3-2.9v-.2h-.9c-.4.7-.9 1.4-1.4 2.1-.8.9-1.8 1.6-2.9 2-1.4.6-3.1.9-4.8.9zm.9-5.1c2.2.1 4.4-.7 6-2.1 1.6-1.5 2.4-3.7 2.3-5.9V30h-8.7c-1.4-.1-2.8.3-4 1.1-1 .7-1.6 1.9-1.5 3.1 0 1.3.5 2.5 1.6 3.2 1.3.9 2.8 1.4 4.3 1.3zM331.7 28.3v-.9c-.1-2.8.6-5.5 1.9-8 2.4-4.3 7-7 11.9-6.9 2.9 0 5.1.5 6.7 1.6 1.4.9 2.5 2.1 3.4 3.5h1v-4.3h6V49c.1 1.6-.5 3.2-1.6 4.4-1.2 1.1-2.8 1.7-4.4 1.6h-20v-5.5h18c1.2 0 1.8-.6 1.8-1.8v-9.4h-1c-.5.8-1.1 1.6-1.9 2.2-.9.8-2 1.5-3.2 1.9-1.6.5-3.2.8-4.9.7-2.4 0-4.8-.6-6.9-1.8-2.1-1.2-3.9-3-5-5.1-1.2-2.4-1.8-5.1-1.8-7.9zm15.5 9.4c2.5.1 4.9-.8 6.6-2.6 1.8-1.9 2.8-4.5 2.6-7.1v-.5c0-3.1-.9-5.5-2.6-7.1-3.8-3.3-9.5-3.3-13.3 0-1.8 1.7-2.6 4-2.6 7.1v.5c-.1 2.6.8 5.2 2.6 7.1 1.8 1.8 4.2 2.7 6.7 2.6zM384.7 43.8c-2.7.1-5.5-.6-7.9-1.9-2.2-1.2-4-3.1-5.3-5.3-1.3-2.5-2-5.2-1.9-8v-.7c-.1-2.8.6-5.6 1.9-8.1 1.2-2.2 3-4.1 5.2-5.3 2.4-1.3 5-2 7.7-1.9 2.6-.1 5.2.6 7.5 1.9 2.1 1.2 3.9 3.1 5 5.3 1.2 2.4 1.9 5.1 1.8 7.9V30H376c0 2.4.9 4.6 2.6 6.2 1.7 1.6 3.9 2.4 6.2 2.3 2.3 0 4.1-.5 5.3-1.6 1.1-1 2.1-2.2 2.7-3.6l5.1 2.6c-.7 1.3-1.5 2.4-2.4 3.5-1.2 1.3-2.6 2.4-4.2 3.1-2.1.9-4.3 1.3-6.6 1.3zM376 25.1h16.4c-.1-2-.9-3.9-2.4-5.3-1.6-1.3-3.6-2-5.7-1.9-2.1-.1-4.1.6-5.7 1.9-1.4 1.4-2.3 3.3-2.6 5.3z" fill="#171691"/></svg>
