<svg width="45" height="44" viewBox="0 0 45 44" fill="none" xmlns="http://www.w3.org/2000/svg">
<circle cx="22.6878" cy="21.805" r="21.7035" fill="#F1F1F1"/>
<path d="M32.9934 12.4866C31.1113 11.6229 29.1254 11.0064 27.085 10.6526C27.0666 10.6495 27.0476 10.6522 27.0307 10.6603C27.0138 10.6684 26.9998 10.6816 26.9907 10.698C26.7349 11.1515 26.4519 11.7447 26.2542 12.2091C24.0549 11.8753 21.8178 11.8753 19.6184 12.2091C19.3979 11.6917 19.1484 11.1872 18.8711 10.698C18.8618 10.6818 18.8478 10.6688 18.8309 10.6607C18.8141 10.6526 18.7952 10.6498 18.7767 10.6526C16.7359 11.0046 14.7496 11.6213 12.8684 12.4866C12.8523 12.4928 12.8388 12.5043 12.8303 12.5193C9.06798 18.141 8.03579 23.6248 8.54191 29.0397C8.54372 29.0651 8.56005 29.0905 8.58 29.1069C10.7709 30.7297 13.2214 31.9688 15.8271 32.7712C15.8455 32.777 15.8653 32.7768 15.8835 32.7706C15.9018 32.7644 15.9176 32.7526 15.9287 32.7368C16.4874 31.9749 16.9845 31.1712 17.4126 30.3259C17.4215 30.3085 17.4245 30.2887 17.4213 30.2694C17.418 30.2501 17.4086 30.2324 17.3944 30.2189C17.3851 30.21 17.3739 30.2032 17.3618 30.1989C16.5802 29.8986 15.8233 29.5377 15.0979 29.1196C15.0776 29.1081 15.0625 29.0892 15.0558 29.067C15.049 29.0447 15.0511 29.0206 15.0616 28.9998C15.0677 28.9863 15.0771 28.9745 15.0888 28.9654C15.2412 28.8511 15.3935 28.7314 15.5387 28.6116C15.5515 28.6013 15.5669 28.5947 15.5832 28.5925C15.5995 28.5902 15.6161 28.5925 15.6312 28.5989C20.3822 30.7685 25.525 30.7685 30.2179 28.5989C30.2336 28.5921 30.2508 28.5897 30.2677 28.592C30.2846 28.5942 30.3007 28.601 30.314 28.6116C30.4592 28.7314 30.6115 28.8511 30.7639 28.9654C30.7763 28.9744 30.7862 28.9863 30.7928 29.0001C30.7994 29.0139 30.8025 29.0291 30.8017 29.0444C30.801 29.0597 30.7965 29.0746 30.7887 29.0877C30.7808 29.1008 30.7698 29.1117 30.7567 29.1196C30.0329 29.5415 29.275 29.9019 28.4909 30.1971C28.4784 30.2016 28.4671 30.2089 28.4576 30.2183C28.4482 30.2277 28.441 30.239 28.4365 30.2515C28.4323 30.2636 28.4306 30.2765 28.4316 30.2893C28.4325 30.3021 28.436 30.3145 28.4419 30.3259C28.8773 31.1694 29.3762 31.9749 29.924 32.7368C29.9351 32.7526 29.9509 32.7644 29.9692 32.7706C29.9874 32.7768 30.0072 32.777 30.0256 32.7712C32.6357 31.9713 35.0902 30.7321 37.2836 29.1069C37.2946 29.0993 37.3037 29.0893 37.3103 29.0777C37.3169 29.066 37.3208 29.0531 37.3217 29.0397C37.9276 22.7795 36.3076 17.341 33.0296 12.5211C33.0263 12.5131 33.0214 12.5059 33.0152 12.5C33.0089 12.4941 33.0015 12.4895 32.9934 12.4866ZM18.1219 25.7418C16.6906 25.7418 15.5133 24.4285 15.5133 22.8176C15.5133 21.2049 16.6688 19.8915 18.1219 19.8915C19.5858 19.8915 20.7522 21.2158 20.7304 22.8176C20.7304 24.4285 19.5749 25.7418 18.1219 25.7418ZM27.7653 25.7418C26.3358 25.7418 25.1567 24.4285 25.1567 22.8176C25.1567 21.2049 26.3123 19.8915 27.7653 19.8915C29.2292 19.8915 30.3975 21.2158 30.3739 22.8176C30.3739 24.4285 29.2292 25.7418 27.7653 25.7418Z" fill="#03040A"/>
</svg>
