<svg xmlns="http://www.w3.org/2000/svg" width="76" height="50" viewBox="0 0 76 50">
  <path d="M86.55,38.252a1.315,1.315,0,0,0-1.05-.524H78.044V29.546a1.316,1.316,0,0,0-1.314-1.316l-38.954-.048-6.3-6.3a1.317,1.317,0,0,0-.931-.385H11.816A1.316,1.316,0,0,0,10.5,22.816V70.184A1.316,1.316,0,0,0,11.816,71.5H76.548a1.317,1.317,0,0,0,1.291-1.068,1.3,1.3,0,0,0,.154-.325l8.772-30.7A1.318,1.318,0,0,0,86.55,38.252ZM30,24.132l6.3,6.3a1.315,1.315,0,0,0,.929.385l38.183.047v6.868H20.588a1.315,1.315,0,0,0-1.265.954L13.132,60.351V24.132ZM75.611,68.868H13.435L21.581,40.36H83.756Z" transform="translate(-10.5 -21.5)"/>
</svg>
