<svg width="44" height="44" viewBox="0 0 44 44" fill="none" xmlns="http://www.w3.org/2000/svg">
<circle cx="21.766" cy="21.805" r="21.7035" fill="#F1F1F1"/>
<path d="M22.0616 7.08496C13.7919 7.08496 7.09375 13.7831 7.09375 22.0528C7.09375 28.6761 11.3783 34.2703 17.328 36.2535C18.0764 36.3845 18.357 35.9355 18.357 35.5426C18.357 35.1871 18.3383 34.0084 18.3383 32.7548C14.5777 33.4471 13.6048 31.838 13.3054 30.9961C13.137 30.5658 12.4073 29.2374 11.7712 28.8819C11.2473 28.6012 10.4989 27.909 11.7525 27.8903C12.9312 27.8715 13.7731 28.9754 14.0538 29.4245C15.4009 31.6883 17.5525 31.0522 18.4132 30.6593C18.5441 29.6864 18.9371 29.0315 19.3674 28.6574C16.037 28.2832 12.557 26.9922 12.557 21.267C12.557 19.6392 13.137 18.2921 14.0912 17.2444C13.9415 16.8702 13.4177 15.336 14.2409 13.2779C14.2409 13.2779 15.4944 12.885 18.357 14.8121C19.5545 14.4753 20.8267 14.3069 22.099 14.3069C23.3713 14.3069 24.6435 14.4753 25.841 14.8121C28.7036 12.8663 29.9571 13.2779 29.9571 13.2779C30.7804 15.336 30.2565 16.8702 30.1068 17.2444C31.061 18.2921 31.641 19.6205 31.641 21.267C31.641 27.0109 28.1423 28.2832 24.8119 28.6574C25.3545 29.1251 25.8223 30.0232 25.8223 31.4264C25.8223 33.4284 25.8035 35.0374 25.8035 35.5426C25.8035 35.9355 26.0842 36.4032 26.8326 36.2535C29.8041 35.2507 32.3863 33.3411 34.2155 30.7936C36.0447 28.2461 37.0289 25.189 37.0294 22.0528C37.0294 13.7831 30.3313 7.08496 22.0616 7.08496Z" fill="#03040A"/>
</svg>
