<svg width="25" height="24" viewBox="0 0 25 24" fill="none" xmlns="http://www.w3.org/2000/svg">
<path d="M5.37893 9.92084L2.40486 12.8949C1.1852 14.1146 0.5 15.7688 0.5 17.4937C0.5 19.2185 1.1852 20.8727 2.40486 22.0924C3.62453 23.3121 5.27875 23.9973 7.00361 23.9973C8.72848 23.9973 10.3827 23.3121 11.6024 22.0924L15.5649 18.1277C16.3004 17.3921 16.8487 16.4908 17.1638 15.4995C17.4788 14.5081 17.5515 13.4557 17.3757 12.4304C17.1999 11.4052 16.7807 10.4371 16.1533 9.6074C15.5259 8.7777 14.7086 8.1106 13.7701 7.66211L12.4998 8.93237C12.3708 9.06157 12.2587 9.2065 12.166 9.36374C12.8911 9.57221 13.5493 9.96632 14.0755 10.5071C14.6016 11.0479 14.9775 11.7166 15.166 12.4472C15.3545 13.1778 15.3491 13.945 15.1503 14.6728C14.9515 15.4007 14.5661 16.064 14.0323 16.5973L10.072 20.5599C9.25848 21.3733 8.15515 21.8304 7.0047 21.8304C5.85425 21.8304 4.75091 21.3733 3.93742 20.5599C3.12393 19.7464 2.66691 18.643 2.66691 17.4926C2.66691 16.3421 3.12393 15.2388 3.93742 14.4253L5.6564 12.7085C5.41386 11.7996 5.32016 10.8575 5.37893 9.91867V9.92084Z" fill="black"/>
<path d="M9.43563 5.8674C8.70014 6.60299 8.15185 7.50428 7.83676 8.49562C7.52168 9.48696 7.449 10.5394 7.62483 11.5647C7.80065 12.5899 8.21986 13.558 8.84725 14.3877C9.47464 15.2174 10.2919 15.8845 11.2305 16.333L12.9104 14.6509C12.1755 14.4537 11.5053 14.0666 10.9674 13.5284C10.4294 12.9903 10.0426 12.32 9.84578 11.5849C9.64895 10.8499 9.64905 10.076 9.84607 9.341C10.0431 8.60601 10.4301 7.93582 10.9682 7.39779L14.9285 3.43525C15.742 2.62176 16.8454 2.16474 17.9958 2.16474C19.1463 2.16474 20.2496 2.62176 21.0631 3.43525C21.8766 4.24874 22.3336 5.35208 22.3336 6.50253C22.3336 7.65298 21.8766 8.75632 21.0631 9.56981L19.3441 11.2866C19.5869 12.197 19.6801 13.14 19.6216 14.0764L22.5957 11.1024C23.8153 9.8827 24.5005 8.22848 24.5005 6.50361C24.5005 4.77875 23.8153 3.12453 22.5957 1.90486C21.376 0.6852 19.7218 0 17.9969 0C16.272 0 14.6178 0.6852 13.3982 1.90486L9.43563 5.8674Z" fill="black"/>
</svg>
