<svg width="25" height="24" viewBox="0 0 25 24" fill="none" xmlns="http://www.w3.org/2000/svg">
<path d="M9.75281 12C9.42274 12.0004 9.1063 12.1317 8.8729 12.3651C8.63951 12.5985 8.50821 12.9149 8.50781 13.245C8.50781 13.9335 9.06581 14.505 9.75281 14.4915C10.0757 14.4803 10.3817 14.3441 10.6061 14.1117C10.8306 13.8793 10.9561 13.5689 10.9561 13.2457C10.9561 12.9226 10.8306 12.6122 10.6061 12.3798C10.3817 12.1474 10.0757 12.0112 9.75281 12ZM12.5173 17.4705C12.9898 17.4705 14.6218 17.4135 15.4813 16.554C15.537 16.4905 15.5677 16.409 15.5677 16.3245C15.5677 16.2401 15.537 16.1585 15.4813 16.095C15.4515 16.0642 15.4159 16.0398 15.3764 16.0231C15.337 16.0064 15.2946 15.9978 15.2518 15.9978C15.209 15.9978 15.1666 16.0064 15.1272 16.0231C15.0878 16.0398 15.0521 16.0642 15.0223 16.095C14.4928 16.6395 13.3333 16.8255 12.5173 16.8255C11.6998 16.8255 10.5553 16.6395 10.0108 16.095C9.98102 16.0642 9.94536 16.0398 9.90593 16.0231C9.86651 16.0064 9.82413 15.9978 9.78131 15.9978C9.7385 15.9978 9.69612 16.0064 9.65669 16.0231C9.61727 16.0398 9.5816 16.0642 9.55181 16.095C9.52106 16.1248 9.4966 16.1605 9.4799 16.1999C9.4632 16.2393 9.4546 16.2817 9.4546 16.3245C9.4546 16.3673 9.4632 16.4097 9.4799 16.4491C9.4966 16.4885 9.52106 16.5242 9.55181 16.554C10.3978 17.3985 12.0298 17.469 12.5173 17.469V17.4705ZM14.0053 13.26C14.0053 13.947 14.5648 14.505 15.2518 14.505C15.9388 14.505 16.4968 13.9335 16.4968 13.26C16.4811 12.9404 16.3431 12.639 16.1113 12.4184C15.8796 12.1977 15.5718 12.0746 15.2518 12.0746C14.9318 12.0746 14.6241 12.1977 14.3923 12.4184C14.1605 12.639 14.0225 12.9404 14.0068 13.26H14.0053Z" fill="black"/>
<path d="M24.5 12C24.5 15.1826 23.2357 18.2348 20.9853 20.4853C18.7348 22.7357 15.6826 24 12.5 24C9.3174 24 6.26516 22.7357 4.01472 20.4853C1.76428 18.2348 0.5 15.1826 0.5 12C0.5 8.8174 1.76428 5.76516 4.01472 3.51472C6.26516 1.26428 9.3174 0 12.5 0C15.6826 0 18.7348 1.26428 20.9853 3.51472C23.2357 5.76516 24.5 8.8174 24.5 12ZM18.758 10.2525C18.2855 10.2525 17.855 10.4385 17.54 10.74C16.3385 9.8805 14.69 9.3225 12.8585 9.2505L13.6595 5.499L16.2665 6.057C16.278 6.30042 16.3606 6.53513 16.5042 6.73203C16.6477 6.92893 16.8459 7.07936 17.0742 7.16469C17.3025 7.25001 17.5507 7.26647 17.7883 7.21203C18.0258 7.15759 18.2421 7.03464 18.4104 6.85841C18.5788 6.68219 18.6917 6.46045 18.7351 6.22067C18.7786 5.9809 18.7508 5.73363 18.6551 5.50952C18.5594 5.28542 18.4 5.09433 18.1967 4.95994C17.9934 4.82555 17.7552 4.75377 17.5115 4.7535C17.2784 4.75431 17.0502 4.82054 16.8529 4.94465C16.6557 5.06875 16.4972 5.24575 16.3955 5.4555L13.4885 4.8405C13.4494 4.83207 13.4089 4.83144 13.3696 4.83865C13.3302 4.84585 13.2926 4.86076 13.259 4.8825C13.224 4.90437 13.1942 4.93374 13.1719 4.9685C13.1496 5.00326 13.1353 5.04254 13.13 5.0835L12.242 9.2655C10.382 9.3225 8.705 9.8805 7.487 10.7535C7.172 10.4535 6.743 10.2675 6.272 10.2675C5.87256 10.2669 5.48501 10.4034 5.17412 10.6542C4.86322 10.905 4.64781 11.2549 4.56387 11.6454C4.47994 12.036 4.53256 12.4435 4.71296 12.7998C4.89335 13.1562 5.19059 13.4399 5.555 13.6035C5.525 13.776 5.5115 13.9485 5.5115 14.133C5.5115 16.8255 8.648 19.017 12.515 19.017C16.3805 19.017 19.517 16.8405 19.517 14.133C19.517 13.962 19.502 13.776 19.4735 13.6035C20.075 13.332 20.5055 12.7155 20.5055 12C20.5055 11.025 19.718 10.2525 18.758 10.2525Z" fill="black"/>
</svg>
