<svg width="45" height="44" viewBox="0 0 45 44" fill="none" xmlns="http://www.w3.org/2000/svg">
<circle cx="22.6019" cy="21.805" r="21.7035" fill="#F1F1F1"/>
<path d="M14.1359 26.2404C14.1359 28.0014 12.6982 29.4372 10.939 29.4372C9.17991 29.4372 7.74219 28.0014 7.74219 26.2423C7.74219 24.4832 9.17991 23.0454 10.9371 23.0454H14.1359V26.2404ZM15.7448 26.2404C15.7448 24.4832 17.1825 23.0454 18.9416 23.0454C20.7007 23.0454 22.1385 24.4832 22.1385 26.2404V34.2468C22.1385 36.004 20.7007 37.4417 18.9435 37.4417C18.0963 37.4402 17.2841 37.1032 16.6847 36.5045C16.0852 35.9058 15.7473 35.094 15.7448 34.2468V26.2404ZM18.9435 13.4074C17.1825 13.4074 15.7448 11.9696 15.7448 10.2105C15.7448 8.4514 17.1825 7.01367 18.9435 7.01367C20.7045 7.01367 22.1385 8.4514 22.1385 10.2086V13.4074H18.9435ZM18.9435 15.0162C20.7007 15.0162 22.1385 16.454 22.1385 18.2131C22.1385 19.9722 20.7007 21.4099 18.9435 21.4099H10.9371C9.18181 21.4099 7.74219 19.9722 7.74219 18.215C7.74219 16.454 9.17991 15.0162 10.9371 15.0162H18.9435ZM31.7784 18.215C31.7784 16.454 33.2143 15.0162 34.9734 15.0162C36.7325 15.0162 38.1702 16.454 38.1702 18.2131C38.1702 19.9722 36.7325 21.4099 34.9753 21.4099H31.7784V18.215ZM30.1657 18.215C30.1657 19.9722 28.7299 21.4099 26.9708 21.4099C26.1239 21.4079 25.3122 21.0707 24.7132 20.4721C24.1141 19.8734 23.7765 19.0619 23.774 18.215V10.2086C23.774 8.4533 25.2117 7.01367 26.9689 7.01367C28.7299 7.01367 30.1657 8.4514 30.1657 10.2086V18.215ZM26.9689 31.048C28.7299 31.048 30.1676 32.4857 30.1676 34.2449C30.1676 36.004 28.7299 37.4417 26.9689 37.4417C25.2079 37.4417 23.7721 36.004 23.7721 34.2468V31.048H26.967H26.9689ZM26.9689 29.4372C25.2117 29.4372 23.774 28.0014 23.774 26.2423C23.774 24.4832 25.2117 23.0454 26.9689 23.0454H34.9753C36.7325 23.0454 38.1702 24.4832 38.1702 26.2404C38.1702 28.0014 36.7325 29.4372 34.9753 29.4372H26.9689Z" fill="#03040A"/>
</svg>
