<svg width="30" height="24" viewBox="0 0 30 24" fill="none" xmlns="http://www.w3.org/2000/svg">
<path d="M9.60962 24C20.5535 24 26.5402 14.7642 26.5402 6.76892C26.5402 6.51047 26.5402 6.24833 26.5293 5.98988C27.6949 5.13052 28.7008 4.06657 29.5 2.8479C28.4113 3.33683 27.2575 3.65906 26.0762 3.80415C27.3205 3.0466 28.2525 1.85466 28.6989 0.449871C27.5298 1.15529 26.2502 1.6505 24.9162 1.91379C24.0193 0.940965 22.8325 0.296497 21.5397 0.0802122C20.2468 -0.136072 18.9199 0.0878992 17.7647 0.717433C16.6094 1.34697 15.6902 2.34693 15.1494 3.56243C14.6087 4.77793 14.4765 6.14114 14.7734 7.44088C12.4077 7.32006 10.0932 6.69409 7.98027 5.60358C5.8673 4.51307 4.00299 2.98237 2.50825 1.11076C1.74943 2.44561 1.51785 4.02457 1.86055 5.52701C2.20324 7.02946 3.09451 8.34274 4.35337 9.20017C3.41004 9.16753 2.48744 8.90953 1.66 8.44698V8.53006C1.66163 9.92841 2.13724 11.2833 3.00646 12.3657C3.87567 13.4481 5.08517 14.1917 6.4305 14.4707C5.91985 14.6139 5.39235 14.6854 4.86269 14.683C4.48928 14.6841 4.11663 14.6489 3.74981 14.5777C4.13005 15.7815 4.87043 16.8339 5.86726 17.5877C6.86409 18.3414 8.06743 18.7588 9.30875 18.7812C7.20001 20.4681 4.59516 21.383 1.91375 21.3786C1.44127 21.3806 0.969117 21.3529 0.5 21.2955C3.2215 23.0627 6.3821 24.001 9.60962 24Z" fill="black"/>
</svg>
