<svg width="41" height="41" viewBox="0 0 41 41" fill="none" xmlns="http://www.w3.org/2000/svg">
<g clip-path="url(#clip0_433_2305)">
<path d="M40.2699 4.21022C40.2747 3.76874 40.1917 3.33071 40.0257 2.92157C39.8598 2.51243 39.6142 2.14034 39.3033 1.82689C38.6715 1.20904 37.8202 0.867332 36.9366 0.876889H3.60327C3.16218 0.867847 2.72402 0.950591 2.31661 1.11987C1.90919 1.28915 1.54141 1.54126 1.2366 1.86022C0.924333 2.16575 0.677576 2.53169 0.51138 2.93572C0.345184 3.33975 0.263031 3.7734 0.269933 4.21022V16.3936C0.301092 22.111 2.27429 27.648 5.86588 32.0967C9.45747 36.5453 14.4542 39.6413 20.0366 40.8769C20.1471 40.8933 20.2594 40.8933 20.3699 40.8769C20.4805 40.8926 20.5927 40.8926 20.7033 40.8769C26.2793 39.595 31.2536 36.455 34.8093 31.9725C38.365 27.49 40.2906 21.9317 40.2699 16.2102V4.21022ZM20.2699 30.8769C17.0652 30.8769 13.9918 29.6038 11.7257 27.3378C9.45966 25.0717 8.1866 21.9983 8.1866 18.7936C8.1866 15.5889 9.45966 12.5154 11.7257 10.2493C13.9918 7.98328 17.0652 6.71022 20.2699 6.71022C20.712 6.71022 21.1359 6.88582 21.4484 7.19838C21.761 7.51094 21.9366 7.93486 21.9366 8.37689C21.9366 8.81892 21.761 9.24284 21.4484 9.5554C21.1359 9.86796 20.712 10.0436 20.2699 10.0436C18.6067 10.0451 16.9784 10.5206 15.5757 11.4144C14.1731 12.3083 13.0543 13.5833 12.3503 15.0902C11.6464 16.5972 11.3865 18.2735 11.6012 19.9228C11.8158 21.5721 12.4961 23.1261 13.5623 24.4026C14.6285 25.6792 16.0364 26.6254 17.6211 27.1304C19.2058 27.6355 20.9016 27.6784 22.5098 27.2541C24.118 26.8299 25.572 25.9561 26.7014 24.7351C27.8308 23.5141 28.5888 21.9966 28.8866 20.3602C28.9676 19.9278 29.2164 19.545 29.5785 19.2952C29.9407 19.0454 30.3869 18.949 30.8199 19.0269C31.2524 19.1079 31.6352 19.3566 31.885 19.7188C32.1347 20.081 32.2312 20.5272 32.1533 20.9602C31.6523 23.7454 30.187 26.2655 28.0142 28.0787C25.8415 29.8918 23.0999 30.8824 20.2699 30.8769ZM31.9366 9.79356C32.247 10.1058 32.4213 10.5282 32.4213 10.9686C32.4213 11.4089 32.247 11.8313 31.9366 12.1436L22.4366 21.6436C21.8779 22.1972 21.1232 22.5079 20.3366 22.5079C19.55 22.5079 18.7953 22.1972 18.2366 21.6436L15.2699 18.6602C15.1137 18.5053 14.9897 18.3209 14.9051 18.1179C14.8205 17.9148 14.7769 17.6969 14.7769 17.4769C14.7769 17.2569 14.8205 17.039 14.9051 16.8359C14.9897 16.6328 15.1137 16.4485 15.2699 16.2936C15.5822 15.9831 16.0046 15.8089 16.4449 15.8089C16.8852 15.8089 17.3077 15.9831 17.6199 16.2936L19.7699 18.4436C19.9277 18.5924 20.1364 18.6753 20.3533 18.6753C20.5702 18.6753 20.7788 18.5924 20.9366 18.4436L29.5866 9.79356C29.8989 9.48314 30.3213 9.3089 30.7616 9.3089C31.2019 9.3089 31.6243 9.48314 31.9366 9.79356Z" fill="white"/>
</g>
<defs>
<clipPath id="clip0_433_2305">
<rect width="40" height="40" fill="white" transform="translate(0.269531 0.876953)"/>
</clipPath>
</defs>
</svg>
