<svg width="136" height="43" viewBox="0 0 136 43" fill="none" xmlns="http://www.w3.org/2000/svg">
<path d="M58.0898 29.8556H60.859V22.8782H68.6432V20.5887H60.859V16.3586H69.1229V14.0474H58.0898V29.8556Z" fill="#607481"/>
<path d="M70.6073 14.0474V16.6639H73.202V14.0474H70.6073ZM70.6073 18.1248V29.8556H73.202V18.1248H70.6073Z" fill="#607481"/>
<path d="M78.717 14.0474H76.1223V29.8556H78.717V14.0474Z" fill="#607481"/>
<path d="M92.2342 24.7315C92.474 20.8067 90.2064 17.8631 86.6087 17.8631C83.2726 17.8631 80.8523 20.3706 80.8523 23.903C80.8523 27.2826 83.0109 30.139 86.7831 30.139C89.7921 30.139 91.5801 28.2202 92.1034 26.3451H89.5523C89.0944 27.4571 88.0478 27.9804 86.6741 27.9804C85.1914 27.9804 83.6651 26.912 83.4906 24.7315H92.2342ZM86.6087 19.8909C88.135 19.8909 89.5305 21.003 89.5959 22.8345H83.4906C83.7305 20.6323 85.3876 19.8909 86.6087 19.8909Z" fill="#607481"/>
<path d="M99.4481 17.8631C95.9375 17.8631 93.6917 20.5233 93.6917 24.012C93.6917 27.5007 95.9375 30.139 99.339 30.139C101.847 30.139 104.267 28.5909 104.79 25.8436H102.261C101.912 27.4135 100.669 27.9804 99.3826 27.9804C97.8563 27.9804 96.3736 26.7811 96.3736 23.9902C96.3736 21.221 97.8127 20.0218 99.4481 20.0218C100.865 20.0218 101.934 20.8939 102.174 22.1368H104.703C104.245 19.5421 102.021 17.8631 99.4481 17.8631Z" fill="#607481"/>
<path d="M108.746 24.012C108.746 21.3082 110.185 19.9782 111.842 19.9782C113.499 19.9782 114.938 21.3082 114.938 24.012C114.938 26.7157 113.499 28.024 111.842 28.024C110.185 28.024 108.746 26.7157 108.746 24.012ZM111.842 17.8631C108.985 17.8631 106.064 19.7819 106.064 24.012C106.064 28.2638 108.985 30.139 111.842 30.139C114.698 30.139 117.62 28.2638 117.62 24.012C117.62 19.7819 114.698 17.8631 111.842 17.8631Z" fill="#607481"/>
<path d="M119.752 14.0474V16.6639H122.347V14.0474H119.752ZM119.752 18.1248V29.8556H122.347V18.1248H119.752Z" fill="#607481"/>
<path d="M127.862 18.1248H125.267V29.8556H127.862V23.6195C127.862 21.5045 128.582 19.9782 130.588 19.9782C132.594 19.9782 132.812 21.5263 132.812 23.118V29.8556H135.406V22.4857C135.406 19.6947 134.251 17.8631 131.416 17.8631C129.759 17.8631 128.538 18.5391 127.862 19.7601V18.1248Z" fill="#607481"/>
<g clip-path="url(#clip0_667_4223)">
<path fill-rule="evenodd" clip-rule="evenodd" d="M21.9897 42.3637C10.2074 42.3637 0.570312 33.0215 0.570312 21.5235C0.570312 10.0254 10.2074 0.795059 22.1052 0.890876C34.003 0.986693 43.4256 10.2171 43.4256 21.8269C43.31 33.1333 33.772 42.3637 21.9897 42.3637" fill="#607481"/>
<path d="M29.0689 6.99121C28.5738 6.99121 27.0391 6.99121 25.1909 8.68398C23.3427 10.3767 22.4186 13.2672 22.2701 13.906C22.2206 14.1455 21.7751 16.03 21.2635 18.2497L15.0588 17.4353L14.6463 19.2079L20.8675 20.0223C20.6529 20.9166 20.4549 21.8269 20.2569 22.6573L14.0687 21.8429L13.6727 23.6155L19.8443 24.4299L19.3988 26.4261C19.3988 26.4101 18.4747 30.0991 18.2107 31.0573L18.1282 31.3447C17.8823 32.1431 17.562 32.9181 17.171 33.6603C16.9986 34.0003 16.7511 34.2996 16.446 34.5369C16.1408 34.7742 15.7856 34.9438 15.4054 35.0337C14.9598 35.1295 14.5968 35.0816 14.3492 34.9059C14.2559 34.8424 14.1773 34.7608 14.1182 34.6664C14.0628 34.5676 14.0291 34.4589 14.0192 34.347C13.9037 33.4207 13.3096 32.9257 12.9631 32.8458C12.6165 32.766 12.1215 32.766 11.8245 32.9896C11.6924 33.1001 11.5856 33.2361 11.5109 33.3888C11.4266 33.547 11.3815 33.7219 11.3789 33.8998C11.3789 35.6724 13.6232 36.1515 14.7948 36.1515C15.2898 36.1515 16.8245 36.1515 18.6727 34.4588C20.5209 32.766 21.412 30.131 21.7586 28.598C21.8741 28.1348 22.2206 26.6497 22.6332 24.7972L28.7388 25.5957L29.1349 23.8231L23.0457 23.0246C23.2437 22.1622 23.4417 21.2679 23.6563 20.3896L29.7454 21.1881L30.1415 19.4155L24.0523 18.617C24.6134 16.2056 25.0589 14.2573 25.1249 13.9699C25.3229 13.2033 25.488 12.6923 25.653 12.0855L25.7355 11.798C25.9813 10.9997 26.3017 10.2246 26.6926 9.48245C26.8651 9.14239 27.1126 8.84314 27.4177 8.60582C27.7228 8.36851 28.078 8.19893 28.4583 8.10908C28.9038 8.02923 29.2669 8.06117 29.5144 8.23683C29.6044 8.31012 29.6823 8.39629 29.7454 8.49234C29.801 8.59231 29.8399 8.70008 29.861 8.81173C29.9765 9.722 30.554 10.2171 30.9006 10.3129C31.2471 10.4087 31.7422 10.3767 32.0392 10.1532C32.1752 10.0424 32.2874 9.90671 32.3692 9.75394C32.4388 9.59718 32.478 9.42936 32.4847 9.25888C32.4847 7.48627 30.2405 6.99121 29.0689 6.99121Z" fill="#CAE0EE"/>
</g>
<defs>
<clipPath id="clip0_667_4223">
<rect width="42.8552" height="41.4728" fill="white" transform="translate(0.570312 0.890625)"/>
</clipPath>
</defs>
</svg>
