<svg width="1509" height="143" viewBox="0 0 1509 143" fill="none" xmlns="http://www.w3.org/2000/svg">
	<path d="M450.141 109V4.20038C450.141 2.54352 448.797 1.20038 447.141 1.20038H413.341C411.684 1.20038 410.341 2.54352 410.341 4.20038V138.2C410.341 139.857 411.684 141.2 413.341 141.2H553.341C554.997 141.2 556.341 139.857 556.341 138.2V112C556.341 110.344 554.997 109 553.341 109H450.141Z" fill="black" />
	<path d="M566.976 136.655C565.775 138.655 567.215 141.2 569.548 141.2H606.583C607.617 141.2 608.578 140.668 609.126 139.79L625.245 114H721.645L737.764 139.79C738.312 140.668 739.274 141.2 740.308 141.2H779.343C781.676 141.2 783.116 138.655 781.914 136.655L700.919 1.85529C700.377 0.952592 699.401 0.400391 698.348 0.400391H650.543C649.49 0.400391 648.513 0.95259 647.971 1.85529L606.545 70.8004L566.976 136.655ZM673.445 25.2004L706 85.0004H640L673.445 25.2004Z" fill="black" />
	<path d="M955.453 49.2004C955.453 37.4004 953.053 25.2004 944.253 16.4004C934.053 6.20039 919.853 1.20038 877.653 1.20038H795.653C793.996 1.20038 792.653 2.54352 792.653 4.20038V138.2C792.653 139.857 793.996 141.2 795.653 141.2H829.453C831.11 141.2 832.453 139.857 832.453 138.2V97.8004H878.653C918.253 97.8004 933.653 92.2004 943.653 82.2004C953.253 72.6004 955.453 60.6004 955.453 49.2004ZM911.253 38.6004C914.253 41.6004 915.453 45.0004 915.453 50.4004C915.453 55.2004 914.053 59.2004 911.453 61.8004C906.253 67.0004 895.453 68.4004 877.053 68.4004H832.453V33.4004H877.053C897.453 33.4004 906.853 34.2004 911.253 38.6004Z" fill="black" />
	<path d="M1011.36 109V4.20038C1011.36 2.54352 1010.02 1.20038 1008.36 1.20038H974.559C972.902 1.20038 971.559 2.54352 971.559 4.20038V138.2C971.559 139.857 972.902 141.2 974.559 141.2H1114.56C1116.22 141.2 1117.56 139.857 1117.56 138.2V109H1011.36Z" fill="black" />
	<path d="M1172.86 55.6004V33.0004H1290.26V4.20038C1290.26 2.54352 1288.92 1.20038 1287.26 1.20038H1136.86C1135.21 1.20038 1133.86 2.54352 1133.86 4.20038V138.2C1133.86 139.857 1135.21 141.2 1136.86 141.2H1287.26C1288.92 141.2 1290.26 139.857 1290.26 138.2V109.4H1172.86V85.4004H1286.46V55.6004H1172.86Z" fill="black" />
	<path d="M1407.94 90.8002L1458.96 140.352C1459.52 140.896 1460.27 141.2 1461.05 141.2H1505.42C1508.14 141.2 1509.45 137.873 1507.47 136.012L1436.89 69.8002L1505.63 6.40547C1507.63 4.55357 1506.32 1.2002 1503.59 1.2002H1463.63C1462.86 1.2002 1462.12 1.49531 1461.56 2.02463L1410.19 50.8002L1360.21 2.05253C1359.65 1.50606 1358.9 1.2002 1358.12 1.2002H1313.75C1311.04 1.2002 1309.72 4.52752 1311.7 6.38797L1381.42 71.8002L1311.66 135.993C1309.65 137.843 1310.96 141.2 1313.69 141.2H1353.64C1354.41 141.2 1355.15 140.905 1355.71 140.376L1407.94 90.8002Z" fill="black" />
	<path fill-rule="evenodd" clip-rule="evenodd" d="M192.5 71.7005C192.5 91.7005 198.1 104.5 211.3 117.701C224.9 131.301 249.9 142.9 293.1 142.9C336.3 142.9 361.3 131.301 374.9 117.701C388.1 104.501 393.7 91.7005 393.7 71.7005C393.7 51.7005 388.1 38.9005 374.9 25.7005C361.3 12.1005 336.3 0.500492 293.1 0.500488C249.9 0.500488 224.9 12.1005 211.3 25.7005C198.1 38.9005 192.5 51.7005 192.5 71.7005ZM243.7 97.5005C251.9 105.7 269.1 112.701 293.1 112.701C317.1 112.701 334.3 105.7 342.5 97.5005C348.5 91.5005 353.1 86.7005 353.1 71.7005C353.1 56.7005 348.5 51.9005 342.5 45.9005C334.3 37.7005 317.1 30.7005 293.1 30.7005C269.1 30.7005 251.9 37.7005 243.7 45.9005C237.7 51.9005 233.1 56.7005 233.1 71.7005C233.1 86.7005 237.7 91.5005 243.7 97.5005Z" fill="black" />
	<path d="M39.8 4.20038C39.8 2.54352 38.4569 1.20038 36.8 1.20038H3C1.34314 1.20038 0 2.54352 0 4.20038V138.2C0 139.857 1.34315 141.2 3 141.2H36.8C38.4569 141.2 39.8 139.857 39.8 138.2V99.5857L137.2 75.5157V138.2C137.2 139.857 138.543 141.2 140.2 141.2H174C175.657 141.2 177 139.857 177 138.2V4.20038C177 2.54353 175.657 1.20038 174 1.20038H140.2C138.543 1.20038 137.2 2.54352 137.2 4.20038V42.5184L39.8 66.5884V4.20038Z" fill="black" />
</svg>
	