<svg width="104" height="45" viewBox="0 0 104 45" fill="none" xmlns="http://www.w3.org/2000/svg">
<path d="M1 31.9523C1 32.3932 1.14694 32.8503 1.44081 33.3238C1.75101 33.7809 2.12652 34.2462 2.56733 34.7197C3.02447 35.1931 3.51426 35.6666 4.0367 36.1401C4.57547 36.5972 5.06527 37.038 5.50608 37.4625C5.96322 37.887 6.33872 38.2951 6.6326 38.687C6.9428 39.0625 7.0979 39.3972 7.0979 39.691V42.6788H5.23669C4.58364 42.6788 4.05303 42.4829 3.64487 42.091C3.25304 41.6992 3.05712 41.1931 3.05712 40.5727H1C1 41.1441 1.10612 41.6829 1.31836 42.189C1.54693 42.6788 1.84897 43.1114 2.22448 43.4869C2.61631 43.8624 3.06529 44.1645 3.5714 44.393C4.09385 44.6053 4.64894 44.7114 5.23669 44.7114H6.95096C7.57136 44.7114 8.13462 44.6053 8.64074 44.393C9.16318 44.1645 9.604 43.8624 9.96318 43.4869C10.3387 43.0951 10.6244 42.6543 10.8203 42.1645C11.0326 41.6584 11.1387 41.1278 11.1387 40.5727V39.0788C11.1387 38.589 10.9836 38.0911 10.6734 37.5849C10.3795 37.0625 10.004 36.5564 9.54685 36.0666C9.10604 35.5605 8.62441 35.0707 8.10197 34.5972C7.57953 34.1238 7.08974 33.6829 6.6326 33.2748C6.19178 32.8503 5.81628 32.4666 5.50608 32.1238C5.2122 31.7809 5.06527 31.487 5.06527 31.2421V28.3524H6.68158C7.46524 28.3524 8.06932 28.5401 8.4938 28.9156C8.93462 29.2748 9.15502 29.7809 9.15502 30.434H11.1632C11.1632 29.8789 11.0489 29.3565 10.8203 28.8667C10.6081 28.3605 10.306 27.9279 9.9142 27.5687C9.53869 27.1932 9.09788 26.8993 8.59176 26.6871C8.08564 26.4585 7.54687 26.3442 6.97545 26.3442H5.23669C4.64894 26.3442 4.09385 26.4504 3.5714 26.6626C3.06529 26.8748 2.61631 27.1687 2.22448 27.5442C1.84897 27.9197 1.54693 28.3605 1.31836 28.8667C1.10612 29.3565 1 29.8952 1 30.483V31.9523ZM25.4174 26.3442H13.1726V28.3769H17.2624V44.7114H21.3277V28.3769H25.4174V26.3442ZM31.6378 44.7114H35.5316C36.0867 44.7114 36.6091 44.6053 37.0989 44.393C37.605 44.1645 38.0459 43.8624 38.4214 43.4869C38.8132 43.0951 39.1234 42.6543 39.352 42.1645C39.5792 41.6646 39.6961 41.1217 39.6948 40.5727V30.483C39.6948 29.9605 39.5805 29.4544 39.352 28.9646C39.1397 28.4585 38.8458 28.0177 38.4703 27.6422C38.0948 27.2504 37.654 26.9402 37.1479 26.7116C36.6418 26.4667 36.103 26.3442 35.5316 26.3442H31.6378C31.0663 26.3442 30.5276 26.4667 30.0214 26.7116C29.5153 26.9402 29.0745 27.2504 28.699 27.6422C28.3235 28.0177 28.0215 28.4585 27.7929 28.9646C27.5807 29.4544 27.4745 29.9605 27.4745 30.483V40.5727C27.4745 41.1278 27.5888 41.6584 27.8174 42.1645C28.046 42.6543 28.348 43.0951 28.7235 43.4869C29.1153 43.8624 29.5561 44.1645 30.0459 44.393C30.5521 44.6053 31.0827 44.7114 31.6378 44.7114ZM35.6296 42.6543H31.5398V28.3769H35.6296V42.6543ZM47.8741 34.4748V28.3524H51.9639V34.4748H47.8741ZM43.8089 44.7114H47.8741V36.5564H51.9639V44.7114H56.0291V39.0298C56.0291 38.3278 55.9149 37.7564 55.6863 37.3156C55.4577 36.8584 55.2047 36.4992 54.9271 36.238C54.6659 35.9605 54.421 35.7727 54.1924 35.6748L53.8496 35.5033L54.1924 35.3809C54.421 35.2993 54.6659 35.1441 54.9271 34.9156C55.2047 34.6707 55.4577 34.336 55.6863 33.9115C55.9149 33.4707 56.0291 32.8993 56.0291 32.1972V30.434C56.0291 29.8299 55.9312 29.2748 55.7353 28.7687C55.5557 28.2626 55.2863 27.8299 54.9271 27.4708C54.5679 27.1116 54.1353 26.834 53.6292 26.6381C53.1394 26.4422 52.5843 26.3442 51.9639 26.3442H43.8089V44.7114ZM64.3799 26.3442C63.9064 26.3442 63.4166 26.4585 62.9105 26.6871C62.4207 26.9157 61.9717 27.2177 61.5636 27.5932C61.1717 27.9687 60.8452 28.4095 60.584 28.9156C60.3391 29.4218 60.2167 29.9442 60.2167 30.483V44.7114H64.2819V36.5564H68.2982V44.7114C68.4288 44.7277 68.6819 44.7359 69.0574 44.7359H70.2574C70.6982 44.7359 71.1145 44.7277 71.5063 44.7114H72.388V30.483C72.388 29.9442 72.2573 29.4299 71.9961 28.9401C71.7349 28.434 71.4002 27.9932 70.9921 27.6177C70.6002 27.2259 70.1513 26.9157 69.6451 26.6871C69.139 26.4585 68.6411 26.3442 68.1513 26.3442H64.3799ZM64.2819 34.4748V28.3524H68.2982V34.4748H64.2819ZM82.5755 36.5319H84.6326V42.6543H80.5429V28.3769H85.049C85.5551 28.3769 85.9551 28.5646 86.2489 28.9401C86.5428 29.2993 86.6898 29.8136 86.6898 30.483H88.6979C88.6979 29.9605 88.5836 29.4544 88.355 28.9646C88.1265 28.4585 87.8163 28.0177 87.4244 27.6422C87.0359 27.2526 86.5794 26.9372 86.0775 26.7116C85.5713 26.4667 85.049 26.3442 84.5102 26.3442H80.6163C80.0449 26.3442 79.5062 26.4667 79 26.7116C78.4939 26.9402 78.0531 27.2504 77.6776 27.6422C77.3021 28.034 77.0082 28.483 76.796 28.9891C76.5837 29.4789 76.4776 29.985 76.4776 30.5075V40.5482C76.4776 41.1196 76.5837 41.6584 76.796 42.1645C77.0082 42.6706 77.3021 43.1114 77.6776 43.4869C78.0531 43.8624 78.4858 44.1645 78.9756 44.393C79.4817 44.6053 80.0286 44.7114 80.6163 44.7114H84.5347C85.1551 44.7114 85.7182 44.5971 86.2245 44.3685C86.7306 44.14 87.1632 43.8379 87.5224 43.4624C87.8979 43.0869 88.1836 42.6461 88.3795 42.14C88.5918 41.6339 88.6979 41.1033 88.6979 40.5482V34.4503H82.5755V36.5319ZM100.967 36.5564V34.4748H96.8772V28.3769H103V26.3442H92.8119V44.7114H103V42.6543H96.8772V36.5564H100.967Z" fill="#607481" stroke="#607481" stroke-width="0.5"/>
<path d="M32.2675 19.6096V9.00214L43.4465 19.6465L43.4613 19.6606H44.5123V1.19141H42.3531V11.7526L31.1739 1.20528L31.1592 1.19141H30.1328V19.6606H32.2675V19.6096ZM56.706 11.5056H56.757V9.34643H52.6673V3.32608H58.7897V1.19141H48.5V19.6606H52.6673V11.5056H56.706ZM73.0673 1.24243V1.19141H60.7205V3.32608H64.8102V19.6606H68.9775V3.32608H73.0673V3.27506V1.24243Z" fill="#607481" stroke="#607481" stroke-width="0.5"/>
</svg>
