<svg width="133" height="42" viewBox="0 0 133 42" fill="none" xmlns="http://www.w3.org/2000/svg">
<path d="M67.6441 8.29615C67.6441 5.58485 65.5805 4.12493 63.1341 4.12493H57.2287V17.3963H60.2482V12.8836H62.8089C65.9431 12.8836 67.6435 10.7984 67.6435 8.29589H67.6441V8.29615ZM64.4906 8.48584C64.4906 9.62342 63.7456 10.3822 62.7324 10.3822H60.229V6.62824H62.7324C63.7451 6.62824 64.4906 7.27317 64.4906 8.48662V8.48584ZM75.5172 9.83194V6.91211H74.6C73.5491 6.91211 72.5365 7.36735 72.0201 8.23938V6.91211H69.1728V17.3965H72.1158V11.8224C72.1158 10.3625 72.9755 9.8131 74.4281 9.8131C74.8294 9.8131 75.5172 9.83194 75.5172 9.83194ZM81.4982 17.5292C84.5559 17.5292 86.7342 15.709 86.7342 12.1639C86.7342 8.59965 84.5559 6.77947 81.4982 6.77947C78.4594 6.77947 76.2812 8.59965 76.2812 12.1639C76.2812 15.709 78.4594 17.5292 81.4982 17.5292ZM81.4982 9.14908C82.7785 9.14908 83.7337 10.002 83.7337 12.1639C83.7337 14.3061 82.7783 15.1596 81.4982 15.1596C80.2561 15.1596 79.2817 14.3067 79.2817 12.1639C79.2817 10.0028 80.2561 9.14908 81.4982 9.14908ZM93.996 17.3586V14.932C93.996 14.932 93.3275 14.989 92.7157 14.989C92.0849 14.989 91.8943 14.8181 91.8943 14.174V9.26393H94.13V6.91316H91.8943V4.12624H88.9322V6.91316H87.4032V9.26393H88.9322V14.3258C88.9322 16.2788 89.2189 17.4732 91.6841 17.4732C93.0216 17.4732 93.996 17.3594 93.996 17.3594V17.3589V17.3586ZM100.111 17.5292C103.169 17.5292 105.347 15.709 105.347 12.1639C105.347 8.59965 103.169 6.77947 100.111 6.77947C97.0723 6.77947 94.894 8.59965 94.894 12.1639C94.894 15.709 97.0723 17.5292 100.111 17.5292ZM100.111 9.14908C101.391 9.14908 102.346 10.002 102.346 12.1639C102.346 14.3061 101.391 15.1596 100.111 15.1596C98.8689 15.1596 97.8945 14.3067 97.8945 12.1639C97.8945 10.0028 98.8689 9.14908 100.111 9.14908ZM113.488 13.4338C113.297 14.685 112.437 15.1593 111.501 15.1593C110.297 15.1593 109.341 14.3064 109.341 12.1636C109.341 10.0025 110.278 9.14882 111.539 9.14882C112.532 9.14882 113.297 9.64199 113.45 10.9313H116.412C116.164 8.16324 114.177 6.7792 111.521 6.7792C108.482 6.7792 106.304 8.65642 106.304 12.2016C106.304 15.7658 108.539 17.5289 111.578 17.5289C114.292 17.5289 116.126 16.1449 116.432 13.4338H113.488H113.488ZM122.508 17.5289C125.565 17.5289 127.744 15.7087 127.744 12.1636C127.744 8.59939 125.565 6.7792 122.508 6.7792C119.469 6.7792 117.291 8.59939 117.291 12.1636C117.291 15.7087 119.469 17.5289 122.508 17.5289ZM122.508 9.14882C123.788 9.14882 124.743 10.0017 124.743 12.1636C124.743 14.3059 123.788 15.1593 122.508 15.1593C121.265 15.1593 120.291 14.3064 120.291 12.1636C120.291 10.0025 121.265 9.14882 122.508 9.14882ZM132.12 17.3963V3.36672H129.177V17.3963H132.12ZM66.7079 38.2511V35.6347H60.249V24.9797H57.2295V38.2511H66.7079ZM74.6767 34.2316C74.6767 35.1225 74.0649 36.2598 72.3263 36.2598C71.1989 36.2598 70.893 35.5586 70.893 35.0843C70.893 34.421 71.4091 34.0037 72.1158 33.8711C72.8416 33.7193 74.6765 33.4917 74.6765 33.4917V34.2313L74.6767 34.2316ZM68.2176 31.198H71.0652C71.0652 30.7807 71.1799 29.9089 72.9191 29.9089C74.3334 29.9089 74.6775 30.4021 74.6775 31.1224V31.4826L71.1997 31.9758C70.2253 32.1087 67.8748 32.6958 67.8748 35.0853C67.8748 37.1896 69.4993 38.384 71.6775 38.384C73.4932 38.384 74.2957 37.777 74.7543 37.3034V38.2513H77.8695C77.8695 38.2513 77.6401 37.4552 77.6401 36.6967V31.0467C77.6401 29.5301 76.7994 27.6343 72.9204 27.6343C68.9075 27.6343 68.258 29.6624 68.2197 31.1985H68.2179L68.2176 31.198ZM82.4924 38.2511V37.2273C83.0277 37.8905 83.9639 38.3837 85.1295 38.3837C87.9961 38.3837 89.9639 36.5633 89.9639 33.0181C89.9639 29.4542 87.9576 27.6337 85.3015 27.6337C84.1358 27.6337 83.0275 28.1269 82.4924 28.7902V24.2207H79.5494V38.2503H82.4924V38.2508V38.2511ZM84.7279 30.0036C86.0082 30.0036 86.9636 30.8565 86.9636 33.0181C86.9636 35.1604 86.0082 36.0138 84.7279 36.0138C83.2946 36.0138 82.5114 35.3506 82.5114 33.0181C82.5114 30.6674 83.2946 30.0036 84.7279 30.0036ZM97.3209 30.8754H100.206C100.206 30.0604 99.7859 27.6332 95.658 27.6332C93.1356 27.6332 91.1287 28.7517 91.1287 30.9128C91.1287 33.3583 93.1158 33.8705 95.3903 34.174L95.9639 34.2499C96.7853 34.3637 97.5501 34.5346 97.5501 35.1787C97.5501 35.9369 96.7286 36.2404 95.7919 36.2404C94.7793 36.2404 93.8805 35.9369 93.8805 34.9323H90.9183C90.9183 35.4822 91.1667 38.3827 95.6189 38.3827C99.5746 38.3827 100.53 36.4675 100.53 34.8564C100.53 30.6284 94.0709 32.3159 94.0709 30.7043C94.0709 29.9842 94.8734 29.7564 95.6189 29.7564C96.6316 29.7564 97.3199 30.1548 97.3199 30.8748L97.3207 30.8754H97.3209ZM20.2958 30.9873C20.7489 31.2469 21.1168 31.8813 21.1168 32.3981V41.3276C21.1168 41.847 20.7468 42.0563 20.2961 41.7986L12.5073 37.3382C12.0546 37.0784 11.6867 36.4442 11.6867 35.9275V26.998C11.6867 26.4786 12.0567 26.2693 12.5073 26.527L20.2961 30.9871L20.2958 30.9873ZM32.31 23.1101C32.31 23.6294 31.9401 24.2618 31.4891 24.5208L23.6972 28.983C23.2441 29.2428 22.8765 29.0295 22.8765 28.5128V19.5859C22.8765 19.0666 23.2465 18.4339 23.6972 18.1749L31.4891 13.7127C31.9422 13.4532 32.31 13.6662 32.31 14.1829L32.3092 23.1106L32.31 23.1101ZM30.5985 11.2581C31.0595 11.5218 31.0627 11.9475 30.6117 12.206L22.8156 16.67C22.362 16.9298 21.6197 16.9251 21.1608 16.6621L2.20596 5.80697C1.74499 5.54325 1.74182 5.11757 2.1933 4.85934L9.98995 0.394566C10.4435 0.135026 11.1859 0.139473 11.6447 0.402415L30.5985 11.2597L30.5978 11.2589L30.5983 11.2584L30.5985 11.2581ZM9.92692 34.915C9.92692 35.4356 9.55694 35.6455 9.10731 35.3872L1.31935 30.9272C0.86656 30.6674 0.5 30.0277 0.5 29.5026V7.78963C0.5 7.26192 0.87579 7.04921 1.33386 7.31215L20.2837 18.1642C20.7447 18.4276 21.1176 19.0655 21.1176 19.5822V28.511C21.1176 29.0303 20.7452 29.2383 20.2948 28.9801L10.7502 23.5151C10.2953 23.2553 9.92745 23.4706 9.92745 23.986V34.9139L9.92692 34.9145V34.915ZM34.0632 13.1803C34.0632 12.6597 34.4332 12.0265 34.8841 11.7683L42.6747 7.30613C43.1278 7.04659 43.4957 7.26636 43.4957 7.79146V29.5044C43.4957 30.0321 43.1199 30.6752 42.6615 30.9369L23.712 41.7886C23.251 42.0523 22.8781 41.843 22.8781 41.3263V32.3968C22.8781 31.8774 23.2499 31.243 23.7009 30.9853L33.2407 25.5224C33.6943 25.2625 34.0635 24.6249 34.0635 24.1087L34.064 13.1795V13.1801H34.0635L34.0632 13.1803ZM24.5717 5.79572C24.1181 5.53618 24.1207 5.11417 24.5717 4.85515L32.3662 0.392211C32.8193 0.132671 33.5569 0.134502 34.0078 0.392211L41.8024 4.85646C42.2554 5.116 42.2533 5.53801 41.8024 5.79703L34.0083 10.261C33.5553 10.5206 32.8177 10.5187 32.3667 10.261L24.5722 5.79625H24.5717V5.79546V5.79572Z" fill="#607481"/>
</svg>
