<?xml version="1.0" encoding="utf-8"?>
<!-- Generator: Adobe Illustrator 26.5.0, SVG Export Plug-In . SVG Version: 6.00 Build 0)  -->
<svg version="1.1" id="Layer_1" xmlns="http://www.w3.org/2000/svg" xmlns:xlink="http://www.w3.org/1999/xlink" x="0px" y="0px"
	 viewBox="0 0 289.4 63.5" style="enable-background:new 0 0 289.4 63.5;" xml:space="preserve">
<path d="M16.9,9.8l-8.8,5c-0.3,0.1-0.3,0.5,0,0.6l20.6,11.8c0.2,0.1,0.5,0.1,0.7,0l8.8-5c0.3-0.1,0.3-0.5,0-0.6L17.7,9.8
	C17.4,9.7,17.2,9.7,16.9,9.8z"/>
<path d="M40.4,9.8l-8.8,5c-0.3,0.1-0.3,0.5,0,0.6l8.9,5.2c0.2,0.1,0.5,0.1,0.7,0l8.8-5c0.3-0.1,0.3-0.5,0-0.6l-8.9-5.1
	C40.9,9.7,40.6,9.7,40.4,9.8z"/>
<path d="M30.1,29.9V40c0,0.3,0.3,0.5,0.6,0.3l8.9-5.1c0.1-0.1,0.2-0.2,0.2-0.3V24.5c0-0.3-0.3-0.5-0.6-0.3l-8.7,5
	C30.2,29.4,30.1,29.6,30.1,29.9z"/>
<path d="M42.1,22.5l8.8-5c0.2-0.1,0.6,0,0.6,0.3v23.6c0,0.3-0.1,0.5-0.4,0.6L30.6,53.8c-0.2,0.1-0.6,0-0.6-0.3V43.4
	c0-0.3,0.1-0.5,0.4-0.6l11-6.3c0.2-0.1,0.4-0.4,0.4-0.7V23.2C41.8,22.9,41.9,22.7,42.1,22.5z"/>
<path d="M28.1,29.8v10.4c0,0.2-0.2,0.3-0.4,0.2l-10.8-6.2c-0.2-0.1-0.6,0-0.6,0.3v12.2c0,0.3-0.3,0.5-0.6,0.3l-8.8-5
	c-0.2-0.1-0.4-0.4-0.4-0.6V17.7c0-0.3,0.3-0.5,0.6-0.3l20.6,11.8C27.9,29.3,28.1,29.6,28.1,29.8z"/>
<path d="M18.8,37.6l8.8,5.1c0.2,0.1,0.4,0.4,0.4,0.6v10.2c0,0.3-0.3,0.5-0.6,0.3l-8.8-5.1c-0.2-0.1-0.4-0.4-0.4-0.6V38
	C18.3,37.7,18.6,37.5,18.8,37.6z"/>
<path d="M85.6,25.1c0,4.3-2.9,6.8-6.4,7.2c-1.2,0.1-2,0.2-3.4,0.2h-3.5v8.9h-4.7V17.7h8.2c1.4,0,2.3,0,3.4,0.2
	C82.8,18.3,85.6,20.7,85.6,25.1z M80.6,25.1c0-2.2-1.2-3.3-2.8-3.5c-0.5-0.1-1.2-0.1-2.1-0.1h-3.4v7.2h3.4c0.9,0,1.6,0,2.1-0.1
	C79.5,28.3,80.6,27.3,80.6,25.1z"/>
<path d="M98.5,22.8v3.8c-3.9-0.3-5.9,1.5-5.9,6.4v8.3h-4.7V23.1h4.7v3.3l1.4-2.5c0.9-0.8,2.1-1.2,3.1-1.2
	C97.7,22.7,98.1,22.7,98.5,22.8z"/>
<path d="M118.2,32.2c0,5.5-3.4,9.6-9.4,9.6s-9.4-4.1-9.4-9.6s3.4-9.6,9.4-9.6S118.2,26.7,118.2,32.2z M113.3,32.2
	c0-3.9-1.7-6.3-4.5-6.3s-4.5,2.3-4.5,6.3c0,3.9,1.7,6.3,4.5,6.3C111.6,38.4,113.3,36.1,113.3,32.2z"/>
<path d="M126.7,34.8v1.6c0.1,1.8,0.8,2.2,3.4,2v3.1c-1.1,0.2-2.1,0.2-3.1,0.2c-3.5,0-4.8-1.2-5-3.7c-0.1-0.8-0.1-1.6-0.1-2.6v-9
	h-2.7v-3.1h2.7v-6h4.7v6h3.8v3.1h-3.8v8.4L126.7,34.8z"/>
<path d="M150.5,32.2c0,5.5-3.4,9.6-9.4,9.6s-9.4-4.1-9.4-9.6s3.4-9.6,9.4-9.6S150.5,26.7,150.5,32.2z M145.7,32.2
	c0-3.9-1.7-6.3-4.5-6.3s-4.5,2.3-4.5,6.3c0,3.9,1.7,6.3,4.5,6.3C143.9,38.4,145.7,36.1,145.7,32.2z"/>
<path d="M169.6,29.7H165c-0.4-2.6-1.8-3.7-3.8-3.7c-2.4,0-4.1,1.9-4.1,6.1c0,4.5,1.7,6.4,4.1,6.4c1.8,0,3.2-1.2,3.7-3.5h4.7
	c-0.8,4.5-4.1,6.8-8.7,6.8c-5,0-8.7-3.1-8.7-9.4c0-6.2,4.1-9.7,9.1-9.7C166.2,22.6,169.3,25.6,169.6,29.7z"/>
<path d="M190.1,32.2c0,5.5-3.4,9.6-9.4,9.6s-9.4-4.1-9.4-9.6s3.4-9.6,9.4-9.6S190.1,26.7,190.1,32.2z M185.2,32.2
	c0-3.9-1.7-6.3-4.5-6.3s-4.5,2.3-4.5,6.3c0,3.9,1.7,6.3,4.5,6.3C183.5,38.4,185.2,36.1,185.2,32.2z"/>
<path d="M192.2,41.3V17.2h4.7v24.1H192.2z"/>
<path d="M226.1,41.3h-17V17.2h4.7v20.2h12.3V41.3z"/>
<path d="M238.8,38.6l-0.9,1.9c-1.3,0.9-2.8,1.2-4.5,1.2c-3.1,0-5.8-1.8-5.8-5.3c0-4,3.4-6.3,10-6.3h1.2v-0.4c0-0.5,0-1.1-0.1-1.7
	c-0.1-1.3-1-2.2-2.8-2.2c-1.9,0-2.9,1.1-3,3.1h-4.6c0.1-4.1,3.5-6.4,7.8-6.4c5.1,0,7,2.2,7.3,5.4c0.1,0.9,0.1,1.8,0.1,2.8v5.9
	c0,1.4,0.1,2.6,0.3,4.6h-4.6L238.8,38.6z M238.8,34.6v-1.5c-3.8-0.3-6.3,0.6-6.3,3c0,1.6,1.1,2.4,2.8,2.4
	C237.2,38.4,238.8,37.1,238.8,34.6z"/>
<path d="M265.9,31.9c0,6.6-4,9.9-8.7,9.9c-1.5,0-3.3-0.4-4.3-1l-1.2-1.9v2.4H247V17.2h4.7v8.7l1.4-2c1-0.8,2.9-1.3,4.7-1.3
	C262.9,22.6,265.9,26.5,265.9,31.9z M261,32.2c0-3.7-1.8-6.2-4.6-6.2c-2.6,0-4.7,1.6-4.7,6v0.9c0,4.1,2.4,5.6,4.5,5.6
	C259,38.4,261,36.4,261,32.2L261,32.2z"/>
<path d="M282.5,28.4h-4.7c-0.3-1.7-1.2-2.6-2.8-2.6c-1.4,0-2.2,0.8-2.2,1.9c0,1.4,1.1,2.1,4.1,2.8c3.7,1,5.9,2.5,5.9,5.8
	c0,3.7-3.3,5.4-7.5,5.4c-4.4,0-7.5-1.9-8-6h4.7c0.4,2,1.7,2.9,3.4,2.9c1.5,0,2.7-0.6,2.7-2s-1.2-2.2-4.3-3c-3.4-0.9-5.7-2.3-5.7-5.5
	c0-3.5,2.9-5.6,7.2-5.6C279.6,22.6,282.1,25.1,282.5,28.4L282.5,28.4z"/>
</svg>
