<svg width="814" height="244" viewBox="0 0 814 244" fill="none" xmlns="http://www.w3.org/2000/svg">
<path d="M158.073 129.973V114.027H135.78L147.591 93.6039L133.762 85.6313L122 106.055L110.189 85.6313L96.409 93.6039L108.171 114.027H85.9266V129.973H108.171L96.409 150.396L110.189 158.369L122 137.945L133.762 158.369L147.591 150.396L135.78 129.973H158.073Z" fill="black"/>
<path d="M122 0C54.7253 0 0 54.7253 0 122C0 189.275 54.7253 244 122 244C189.275 244 244 189.275 244 122C244 54.7253 189.275 0 122 0ZM122 228.596C89.7652 228.596 60.877 214.226 41.29 191.539H95.9169V176.774H37.0085L66.4873 125.74L53.6918 118.358L25.4433 167.227C18.9964 153.497 15.3546 138.142 15.3546 122C15.4038 67.2747 56.8415 22.0476 109.992 16.0928L79.7257 68.505L92.5212 75.887L122 24.8035L151.43 75.8378L164.225 68.4558L134.008 16.0928C187.159 22.0968 228.596 67.2747 228.596 122C228.596 138.142 224.954 153.497 218.507 167.227L190.308 118.309L177.513 125.691L206.942 176.774H147.985V191.539H202.661C183.074 214.226 154.186 228.596 121.951 228.596H122Z" fill="black"/>
<path d="M369.907 91.9188H390.742L406.53 156.59L419.901 91.9188H441.757L417.538 183.049H398.368L380.378 115.641L362.389 183.049H343.218L319 91.9188H340.856L354.227 156.59L369.8 91.9188H369.907Z" fill="black"/>
<path d="M521.446 148.486C521.446 132.707 509.095 127.34 490.784 127.34H484.877V110.542H489.979C508.988 110.542 518.439 104.263 518.439 91.5968C518.439 78.9309 508.451 73.4567 497.067 73.4567C482.138 73.4567 473.869 82.4194 471.989 96.8027H452.335C454.215 73.4567 471.13 58 498.248 58C518.761 58 539.06 67.3384 539.06 90.3624C539.06 102.545 531.918 112.689 521.07 117.948C535.999 123.369 542.282 135.23 542.282 147.949C542.282 173.013 520.748 185.196 496.208 185.196C467.747 185.196 452.121 166.573 450.778 144.89H470.432C472.311 158.415 480.796 169.632 496.53 169.632C510.76 169.632 521.446 161.85 521.446 148.486Z" fill="black"/>
<path d="M576.327 183.049H556.136V60.2541H576.327V183.049Z" fill="black"/>
<path d="M615.796 60.2541V80.5947H595.605V60.2541H615.796ZM615.796 91.9189V183.049H595.605V91.9189H615.796Z" fill="black"/>
<path d="M655.265 104.638C660.528 95.139 670.032 89.8794 682.866 89.8794C704.883 89.8794 713.905 104.102 713.905 125.784V183.049H693.714V130.722C693.714 118.539 691.995 106.356 676.422 106.356C660.85 106.356 655.265 118.217 655.265 134.639V183.103H635.074V91.9189H655.265V104.638Z" fill="black"/>
<path d="M752.138 60.2541V128.521L785.862 91.9189H810.08L775.175 129.326L814 182.995H790.426L761.804 143.549L752.138 153.907V183.049H731.947V60.2541H752.138Z" fill="black"/>
</svg>
