<svg width="1002" height="213" viewBox="0 0 1002 213" fill="none" xmlns="http://www.w3.org/2000/svg">
<path d="M98.7321 116.256C93.3082 125.759 88.0319 135.072 83.1356 143.837C89.1294 147.334 95.1865 150.79 101.223 154.119C106.351 145.564 111.775 136.378 117.283 126.96C122.728 136.062 128.068 144.953 133.133 153.255C138.62 150.579 144.108 147.819 149.532 145.017C144.678 136.041 139.444 126.475 134.041 116.741C145.205 116.53 156.159 116.298 166.479 116.003C166.247 109.893 165.93 103.741 165.55 97.6096C155.652 97.3989 145.205 97.2303 134.568 97.1039C140.013 87.6014 145.29 78.2886 150.207 69.5025C144.213 66.005 138.156 62.5706 132.099 59.2415C126.971 67.7959 121.525 76.9823 116.017 86.4216C110.931 77.509 105.929 68.8283 101.201 60.6743C95.5242 63.2659 89.847 65.9207 84.2541 68.6387C89.256 77.6987 94.6378 87.3486 100.188 97.1882C88.8761 97.2936 77.7749 97.4621 67.3069 97.6517C67.5812 103.783 67.9189 109.956 68.341 116.088C78.0493 116.172 88.2852 116.235 98.7321 116.256Z" fill="black"/>
<path d="M164.853 204.665C167.323 208.289 169.138 210.775 170.425 212.376C175.427 211.808 180.492 210.838 185.494 209.49C184.164 206.582 182.497 203.043 180.26 198.534C188.09 197.607 195.498 196.511 202.357 195.205C203.855 191.623 205.227 187.683 206.493 183.469C199.508 184.901 191.635 186.081 183.13 187.008C188.828 180.14 194.295 172.281 199.275 164C195.624 162.378 191.678 160.608 187.478 158.67C182.391 166.866 176.968 174.683 171.438 181.699C167.935 175.083 163.798 167.456 159.155 158.986C153.52 162.273 147.779 165.454 142.06 168.488C146.956 176.558 151.367 183.722 155.187 189.769C146.112 190.443 136.72 190.885 127.244 191.096C126.822 195.141 126.379 198.723 125.936 201.757C135.264 201.757 144.508 201.568 153.457 201.146C147.906 206.182 142.524 209.722 137.607 211.365C141.279 211.744 144.761 212.018 148.096 212.25C153.436 211.407 159.113 208.752 164.853 204.644V204.665Z" fill="black"/>
<path d="M218.861 124.052C221.521 131.953 223.568 139.264 225.235 145.943C227.936 142.488 230.068 139.075 231.566 135.788C230.553 129.383 229.182 122.387 227.219 114.781C231.165 114.528 233.55 114.233 233.972 113.875C233.972 109.493 233.994 105.11 234.015 100.77C233.677 100.138 231.166 99.5057 226.881 98.8736C228.823 91.2464 230.174 84.188 231.208 77.7196C229.709 74.8962 227.662 71.9675 225.151 69.0178C223.568 75.423 221.605 82.3971 219.136 89.8979C215.78 81.1961 211.707 72.1993 207.021 63.3289C203.434 65.5413 199.487 67.9643 195.182 70.577C200.226 79.7212 204.784 88.9919 208.731 97.9466C201.703 97.778 193.493 97.6516 184.46 97.5673C184.334 103.614 184.101 109.703 183.785 115.772C193.303 115.919 201.956 116.003 209.259 116.024C205.607 124.979 201.386 134.208 196.701 143.31C200.648 145.311 204.299 147.166 207.676 148.893C211.981 140.613 215.738 132.206 218.882 124.073L218.861 124.052Z" fill="black"/>
<path d="M14.9875 124.031C18.2798 132.522 22.2476 141.308 26.8062 149.968C30.4152 147.734 34.3829 145.311 38.6883 142.678C33.7286 133.681 29.2333 124.558 25.35 115.751C32.3568 116.088 40.5244 116.404 49.5151 116.678C49.6629 110.61 49.9161 104.499 50.2749 98.4102C40.7355 98.2206 32.0825 98.0731 24.7379 97.9888C28.4313 89.2238 32.7156 80.1427 37.4642 71.1881C33.4121 69.06 29.6554 67.0795 26.2364 65.2464C21.9943 73.4636 18.3009 81.7861 15.1985 89.8559C12.476 81.744 10.3655 74.2642 8.67708 67.4376C6.01786 70.872 3.90737 74.2643 2.43002 77.5301C3.46417 84.0196 4.83599 91.1411 6.84095 98.8737C2.87323 99.253 0.48837 99.6744 0.0662709 100.117C0.0662709 104.478 0.0662709 108.84 0.045166 113.159C0.382845 113.791 2.89433 114.423 7.15753 115.055C5.27919 122.809 3.97068 130.015 2.95765 136.631C4.4561 139.37 6.46107 142.172 8.93034 145.017C10.5132 138.59 12.476 131.574 14.9875 124.01V124.031Z" fill="black"/>
<path d="M53.5037 198.491C51.2666 203 49.5993 206.54 48.2697 209.469C53.2505 210.817 58.2945 211.786 63.2753 212.355C64.5627 210.733 66.3777 208.226 68.8259 204.602C74.6298 208.731 80.3914 211.449 85.7732 212.271C89.1077 212.018 92.6534 211.723 96.389 211.302C91.4926 209.595 86.1531 205.992 80.6447 200.936C89.3821 201.357 98.3939 201.568 107.49 201.589C107.258 198.534 107.026 194.889 106.836 190.78C97.1909 190.654 87.6515 190.316 78.4286 189.726C82.2275 183.701 86.6385 176.516 91.5137 168.446C85.7943 165.391 80.0537 162.209 74.4187 158.922C69.8178 167.308 65.7235 174.893 62.2623 181.467C56.7539 174.514 51.351 166.76 46.2858 158.67C42.086 160.629 38.1604 162.441 34.5304 164.085C39.4478 172.386 44.8507 180.266 50.4857 187.156C42.0437 186.229 34.256 185.07 27.3125 183.658C28.5999 187.788 29.9928 191.644 31.4913 195.162C38.3293 196.469 45.716 197.585 53.5248 198.491H53.5037Z" fill="black"/>
<path d="M169.961 32.0615C175.828 39.4781 181.59 47.8217 186.993 56.5446C191.446 54.1216 195.604 51.8671 199.424 49.8233C194.295 41.4797 188.681 33.5575 182.814 26.6255C190.961 27.7844 198.537 29.175 205.333 30.7974C204.468 26.6255 203.497 22.7276 202.421 19.1668C195.076 17.5023 187.056 16.0696 178.635 14.8686C180.788 10.3386 182.392 6.77783 183.616 3.93341C178.973 2.79564 174.288 1.93177 169.666 1.38396C168.378 3.00633 166.627 5.4715 164.284 8.96908C158.121 4.52336 152.043 1.7 146.387 1.0047C142.905 1.23647 139.19 1.57359 135.201 2.07926C140.309 3.78591 145.944 7.38885 151.79 12.4877C143.179 12.0031 134.357 11.7081 125.472 11.6239C125.451 14.6368 125.388 18.2187 125.303 22.2641C135.265 22.6223 145.205 23.2122 154.808 24.0761C151.326 30.2074 147.252 37.4765 142.757 45.6094C148.054 48.0956 153.352 50.6661 158.565 53.3209C162.87 45.4619 166.711 38.3192 170.025 32.0826L169.961 32.0615Z" fill="black"/>
<path d="M49.853 26.7941C44.0069 33.7471 38.4352 41.6693 33.3489 50.0129C37.0845 52.0356 41.1578 54.2269 45.5265 56.6288C50.8871 47.927 56.6277 39.5834 62.4949 32.1458C65.8083 38.4035 69.6494 45.5462 73.9759 53.4052C79.2733 50.5608 84.655 47.8006 90.0368 45.1458C85.6259 37.0761 81.637 29.8702 78.2391 23.8022C87.5675 22.9804 97.1914 22.3905 106.879 22.0323C107.068 17.9658 107.258 14.3629 107.491 11.3499C98.4577 11.5185 89.4881 11.9188 80.7506 12.5088C86.6389 7.40988 92.3161 3.78587 97.4868 2.05814C93.5402 1.55247 89.8469 1.21536 86.3856 0.962524C80.7084 1.6789 74.6302 4.50224 68.4887 8.90582C66.1882 5.47145 64.4365 3.0063 63.1702 1.36286C58.5271 1.95281 53.8207 2.83773 49.1776 4.03871C50.3173 6.9674 51.7947 10.6125 53.8418 15.2057C45.4843 16.4488 37.5699 17.9026 30.3309 19.6303C29.3179 23.149 28.4104 26.9626 27.6084 31.0501C34.2987 29.4067 41.812 27.995 49.8741 26.7941H49.853Z" fill="black"/>
<path d="M395.847 77.5091L411.824 143.036L425.394 77.5091H447.554L422.988 169.795H403.572L385.358 101.529L367.145 169.795H347.728L323.162 77.5091H345.322L358.893 143.036L374.7 77.5091H395.826H395.847Z" fill="black"/>
<path d="M492.761 113.37H486.746V96.3875H491.896C511.312 96.3875 520.767 90.0455 520.767 77.1719C520.767 64.2983 510.637 58.8201 499.114 58.8201C484.002 58.8201 475.582 67.9012 473.682 82.4815H453.759C455.658 58.8201 472.669 43.2075 500.316 43.2075C521.105 43.2075 541.724 52.6467 541.724 75.9709C541.724 88.3178 534.506 98.6209 523.511 103.931C538.453 109.43 544.996 121.608 544.996 134.292C544.996 159.681 523.173 172.028 498.248 172.028C469.377 172.028 453.738 153.149 452.197 131.195H472.12C474.189 144.911 482.251 156.247 498.586 156.247C513.022 156.247 523.849 148.346 523.849 134.798C523.849 118.848 511.143 113.349 492.74 113.349L492.761 113.37Z" fill="black"/>
<path d="M611.688 75.4651C634.038 75.4651 643.134 89.8769 643.134 111.832V169.816H622.683V116.804C622.683 104.289 620.784 92.1103 605.166 92.1103C589.549 92.1103 583.681 104.12 583.681 120.765V169.837H563.231V77.5511H583.681V90.4247C589 80.8169 598.793 75.5073 611.688 75.5073V75.4651Z" fill="black"/>
<path d="M721.138 112.169V110.441C721.138 94.6598 712.042 89.8559 701.89 89.8559C691.739 89.8559 683.845 95.3551 683.339 106.501H663.226C664.598 87.6435 680.236 74.7699 702.566 74.7699C724.895 74.7699 742.095 84.8834 741.567 114.402C741.567 119.037 741.23 129.846 741.23 138.253C741.23 149.926 742.264 162.104 743.973 169.816H725.253C724.557 165.876 723.882 163.642 723.544 157.3C717.698 167.245 706.702 172.049 693.132 172.049C673.019 172.049 658.942 161.24 658.942 144.427C658.942 121.439 687.286 115.603 721.138 112.169ZM680.595 143.9C680.595 151.97 687.307 156.773 697.606 156.773C712.717 156.773 721.666 149.062 721.666 133.449V126.412C692.456 129.151 680.595 133.281 680.595 143.921V143.9Z" fill="black"/>
<path d="M762.229 169.794V77.5089H782.68V90.3825C787.998 80.7747 797.115 75.4651 809.483 75.4651C823.75 75.4651 832.171 81.47 836.455 91.7732C844.348 80.1005 855.175 75.4651 866.53 75.4651C888.352 75.4651 896.773 89.8769 896.773 111.832V169.816H876.322V116.804C876.322 104.289 875.119 92.1103 860.008 92.1103C844.897 92.1103 839.726 104.12 839.726 120.765V169.837H819.276V116.825C819.276 104.31 818.073 92.1313 802.962 92.1313C787.85 92.1313 782.68 104.141 782.68 120.786V169.858H762.229V169.794Z" fill="black"/>
<path d="M957.787 155.046C968.445 155.046 976.866 150.769 980.475 142.172H1000.59C996.304 156.921 982.543 172.028 958.653 172.028C928.937 172.028 911.905 149.378 911.905 122.957C911.905 95.1656 930.984 75.4443 957.26 75.4443C985.604 75.4443 1003.31 98.4314 1001.6 129.488H932.694C934.065 146.639 946.095 155.046 957.787 155.046ZM980.813 114.571C980.306 100.159 969.311 91.4152 957.281 91.4152C947.657 91.4152 934.424 97.083 932.715 114.571H980.834H980.813Z" fill="black"/>
</svg>
