<svg width="108" height="109" viewBox="0 0 108 109" fill="none" xmlns="http://www.w3.org/2000/svg">
<circle cx="54" cy="54.5564" r="54" fill="#03040A"/>
<path d="M76.0267 33.6664C71.8119 31.7321 67.3645 30.3516 62.7952 29.5592C62.7539 29.5522 62.7113 29.5583 62.6735 29.5765C62.6357 29.5946 62.6044 29.6241 62.584 29.6608C62.0112 30.6764 61.3775 32.0048 60.9346 33.0448C56.0093 32.2973 50.9995 32.2973 46.0742 33.0448C45.5802 31.8863 45.0214 30.7565 44.4004 29.6608C44.3796 29.6245 44.3483 29.5954 44.3106 29.5773C44.2729 29.5591 44.2305 29.5528 44.1892 29.5592C39.6189 30.3473 35.1705 31.7286 30.9578 33.6664C30.9217 33.6801 30.8916 33.706 30.8725 33.7395C22.4469 46.329 20.1354 58.6099 21.2688 70.7363C21.2729 70.7932 21.3094 70.85 21.3541 70.8866C26.2604 74.5209 31.7483 77.2958 37.5836 79.0928C37.6248 79.1058 37.6691 79.1053 37.71 79.0914C37.7509 79.0775 37.7864 79.051 37.8111 79.0156C39.0624 77.3093 40.1755 75.5097 41.1342 73.6166C41.1542 73.5776 41.1611 73.5332 41.1537 73.49C41.1464 73.4468 41.1253 73.4071 41.0936 73.3769C41.0726 73.3571 41.0477 73.3418 41.0205 73.3322C39.2702 72.6595 37.5751 71.8514 35.9505 70.915C35.9052 70.8893 35.8714 70.8471 35.8563 70.7972C35.8412 70.7473 35.8458 70.6935 35.8693 70.6469C35.8831 70.6167 35.904 70.5902 35.9302 70.5697C36.2715 70.3138 36.6127 70.0457 36.9377 69.7775C36.9664 69.7545 37.0009 69.7396 37.0374 69.7346C37.0739 69.7296 37.111 69.7346 37.1449 69.7491C47.7845 74.6078 59.3015 74.6078 69.8111 69.7491C69.8462 69.7339 69.8848 69.7285 69.9227 69.7335C69.9606 69.7386 69.9965 69.7538 70.0264 69.7775C70.3514 70.0457 70.6927 70.3138 71.0339 70.5697C71.0616 70.5899 71.0838 70.6167 71.0986 70.6476C71.1133 70.6785 71.1202 70.7125 71.1186 70.7468C71.117 70.781 71.107 70.8142 71.0893 70.8436C71.0717 70.873 71.0471 70.8975 71.0177 70.915C69.3968 71.8599 67.6995 72.6671 65.9437 73.3281C65.9156 73.3383 65.8902 73.3545 65.8692 73.3755C65.8481 73.3966 65.8319 73.422 65.8218 73.45C65.8124 73.4771 65.8086 73.5059 65.8107 73.5345C65.8128 73.5632 65.8207 73.5911 65.834 73.6166C66.809 75.5056 67.9261 77.3093 69.153 79.0156C69.1778 79.051 69.2132 79.0775 69.2541 79.0914C69.295 79.1053 69.3393 79.1058 69.3805 79.0928C75.2256 77.3013 80.7224 74.5262 85.6344 70.8866C85.659 70.8696 85.6794 70.8472 85.6942 70.8212C85.709 70.7952 85.7177 70.7661 85.7197 70.7363C87.0766 56.7167 83.4488 44.5375 76.1079 33.7436C76.1005 33.7257 76.0895 33.7096 76.0755 33.6963C76.0615 33.6831 76.0449 33.6728 76.0267 33.6664ZM42.7226 63.3507C39.5174 63.3507 36.8808 60.4095 36.8808 56.8021C36.8808 53.1905 39.4686 50.2493 42.7226 50.2493C46.0011 50.2493 48.6132 53.2149 48.5645 56.8021C48.5645 60.4095 45.9767 63.3507 42.7226 63.3507ZM64.3187 63.3507C61.1175 63.3507 58.4769 60.4095 58.4769 56.8021C58.4769 53.1905 61.0646 50.2493 64.3187 50.2493C67.5971 50.2493 70.2133 53.2149 70.1605 56.8021C70.1605 60.4095 67.5971 63.3507 64.3187 63.3507Z" fill="#F1F1F1"/>
</svg>
