<svg width="108" height="109" viewBox="0 0 108 109" fill="none" xmlns="http://www.w3.org/2000/svg">
<circle cx="54" cy="54.5564" r="54" fill="#03040A"/>
<path d="M54.5 22.5564C36.5437 22.5564 22 37.1001 22 55.0564C22 69.4376 31.3031 81.5845 44.2219 85.8908C45.8469 86.1751 46.4562 85.2001 46.4562 84.347C46.4562 83.5751 46.4156 81.0158 46.4156 78.2939C38.25 79.797 36.1375 76.3033 35.4875 74.4751C35.1219 73.5408 33.5375 70.6564 32.1562 69.8845C31.0188 69.2751 29.3937 67.772 32.1156 67.7314C34.675 67.6908 36.5031 70.0876 37.1125 71.0626C40.0375 75.9783 44.7094 74.597 46.5781 73.7439C46.8625 71.6314 47.7156 70.2095 48.65 69.397C41.4187 68.5845 33.8625 65.7814 33.8625 53.3501C33.8625 49.8158 35.1219 46.8908 37.1937 44.6158C36.8687 43.8033 35.7312 40.472 37.5187 36.0033C37.5187 36.0033 40.2406 35.1501 46.4562 39.3345C49.0562 38.6033 51.8187 38.2376 54.5812 38.2376C57.3438 38.2376 60.1063 38.6033 62.7062 39.3345C68.9219 35.1095 71.6437 36.0033 71.6437 36.0033C73.4312 40.472 72.2938 43.8033 71.9688 44.6158C74.0406 46.8908 75.3 49.7751 75.3 53.3501C75.3 65.822 67.7031 68.5845 60.4719 69.397C61.65 70.4126 62.6656 72.3626 62.6656 75.4095C62.6656 79.7564 62.625 83.2501 62.625 84.347C62.625 85.2001 63.2344 86.2158 64.8594 85.8908C71.3116 83.7132 76.9183 79.5668 80.8901 74.0354C84.8619 68.504 86.9989 61.8661 87 55.0564C87 37.1001 72.4562 22.5564 54.5 22.5564Z" fill="#F1F1F1"/>
</svg>
