<svg width="108" height="109" viewBox="0 0 108 109" fill="none" xmlns="http://www.w3.org/2000/svg">
<circle cx="54" cy="54.5564" r="54" fill="#03040A"/>
<path d="M35.6581 62.6283C35.6581 66.3901 32.5869 69.4573 28.8291 69.4573C25.0712 69.4573 22 66.3901 22 62.6323C22 58.8745 25.0712 55.8033 28.825 55.8033H35.6581V62.6283ZM39.095 62.6283C39.095 58.8745 42.1662 55.8033 45.9241 55.8033C49.6819 55.8033 52.7531 58.8745 52.7531 62.6283V79.7314C52.7531 83.4851 49.6819 86.5564 45.9281 86.5564C44.1183 86.5532 42.3833 85.8333 41.1028 84.5543C39.8223 83.2753 39.1004 81.5413 39.095 79.7314V62.6283ZM45.9281 35.2145C42.1662 35.2145 39.095 32.1433 39.095 28.3855C39.095 24.6276 42.1662 21.5564 45.9281 21.5564C49.69 21.5564 52.7531 24.6276 52.7531 28.3814V35.2145H45.9281ZM45.9281 38.6514C49.6819 38.6514 52.7531 41.7226 52.7531 45.4805C52.7531 49.2383 49.6819 52.3095 45.9281 52.3095H28.825C25.0753 52.3095 22 49.2383 22 45.4845C22 41.7226 25.0712 38.6514 28.825 38.6514H45.9281ZM73.3459 45.4845C73.3459 41.7226 76.4131 38.6514 80.1709 38.6514C83.9288 38.6514 87 41.7226 87 45.4805C87 49.2383 83.9287 52.3095 80.175 52.3095H73.3459V45.4845V45.4845ZM69.9009 45.4845C69.9009 49.2383 66.8338 52.3095 63.0759 52.3095C61.2668 52.3052 59.5329 51.5849 58.2532 50.306C56.9736 49.0271 56.2522 47.2937 56.2469 45.4845V28.3814C56.2469 24.6317 59.3181 21.5564 63.0719 21.5564C66.8337 21.5564 69.9009 24.6276 69.9009 28.3814V45.4845V45.4845ZM63.0719 72.8983C66.8337 72.8983 69.905 75.9695 69.905 79.7273C69.905 83.4851 66.8337 86.5564 63.0719 86.5564C59.31 86.5564 56.2428 83.4851 56.2428 79.7314V72.8983H63.0678H63.0719ZM63.0719 69.4573C59.3181 69.4573 56.2469 66.3901 56.2469 62.6323C56.2469 58.8745 59.3181 55.8033 63.0719 55.8033H80.175C83.9287 55.8033 87 58.8745 87 62.6283C87 66.3901 83.9287 69.4573 80.175 69.4573H63.0719V69.4573Z" fill="#F1F1F1"/>
</svg>
