<svg version="1.1" id="Layer_1" xmlns="http://www.w3.org/2000/svg" xmlns:xlink="http://www.w3.org/1999/xlink" x="0px" y="0px"
	 viewBox="0 0 108 109" style="enable-background:new 0 0 108 109;" xml:space="preserve">
<circle fill="#03040A" cx="54.5" cy="54.5" r="54"/>
<path fill="#FFFFFF" d="M69.2,31.7c2.6,0.5,4.9,1.8,6.2,3.3l5.8-0.3c1.5-0.1,2.5,1.6,1.6,2.9l-4,5.8c1.2,25.1-24.4,41-45.3,31.6
	c-0.9-0.4-1.1-1.4-1-2.2c0.2-0.8,0.8-1.5,1.8-1.6c3-0.4,6.7-1.3,9.8-3.8c-2.6-0.4-5.5-1.9-8-3.9c-3-2.4-5.5-5.6-6.2-8.7
	c-0.1-0.6,0.1-1.2,0.5-1.5c0.4-0.4,1-0.5,1.5-0.4c1.5,0.3,3.8,0.7,5.6,0.9c-0.1-0.1-0.3-0.3-0.4-0.4c-0.9-1-2.1-2.4-3.1-4.2
	c-2.1-3.5-4-8.2-2.5-13.3c0.2-0.7,0.8-1.1,1.4-1.2c0.6-0.1,1.2,0.1,1.7,0.6c2.8,2.9,9.9,9.1,20.7,10c-0.4-2.5-0.6-7.9,5.1-11.8
	C63.3,31.4,66.5,31.1,69.2,31.7z"/>
</svg>
